<mxfile host="Electron" agent="Mozilla/5.0 (Macintosh; Intel Mac OS X 10_15_7) AppleWebKit/537.36 (KHTML, like Gecko) draw.io/25.0.2 Chrome/128.0.6613.186 Electron/32.2.5 Safari/537.36" version="25.0.2">
  <diagram name="Page-1" id="otEGZbcuj6zzYRcHvmo2">
    <mxGraphModel dx="2258" dy="1649" grid="1" gridSize="10" guides="1" tooltips="1" connect="1" arrows="1" fold="1" page="0" pageScale="1" pageWidth="850" pageHeight="1100" math="0" shadow="0">
      <root>
        <mxCell id="0" />
        <mxCell id="1" parent="0" />
        <mxCell id="Y7hhoJTVe6BPz_TUXUCj-2" value="" style="endArrow=none;html=1;rounded=0;strokeWidth=2;" parent="1" edge="1">
          <mxGeometry width="50" height="50" relative="1" as="geometry">
            <mxPoint x="220" y="680" as="sourcePoint" />
            <mxPoint x="220" y="200" as="targetPoint" />
          </mxGeometry>
        </mxCell>
        <mxCell id="Y7hhoJTVe6BPz_TUXUCj-3" value="" style="endArrow=classic;html=1;rounded=0;" parent="1" edge="1">
          <mxGeometry width="50" height="50" relative="1" as="geometry">
            <mxPoint x="220" y="320" as="sourcePoint" />
            <mxPoint x="300" y="320" as="targetPoint" />
          </mxGeometry>
        </mxCell>
        <mxCell id="Y7hhoJTVe6BPz_TUXUCj-4" value="inM[16]" style="text;html=1;align=center;verticalAlign=middle;whiteSpace=wrap;rounded=0;" parent="1" vertex="1">
          <mxGeometry x="230" y="290" width="60" height="30" as="geometry" />
        </mxCell>
        <mxCell id="Y7hhoJTVe6BPz_TUXUCj-5" value="" style="endArrow=classic;html=1;rounded=0;" parent="1" edge="1">
          <mxGeometry width="50" height="50" relative="1" as="geometry">
            <mxPoint x="220" y="440" as="sourcePoint" />
            <mxPoint x="300" y="440" as="targetPoint" />
          </mxGeometry>
        </mxCell>
        <mxCell id="Y7hhoJTVe6BPz_TUXUCj-6" value="instruction[16]" style="text;html=1;align=center;verticalAlign=middle;whiteSpace=wrap;rounded=0;" parent="1" vertex="1">
          <mxGeometry x="210" y="410" width="110" height="30" as="geometry" />
        </mxCell>
        <mxCell id="Y7hhoJTVe6BPz_TUXUCj-7" value="" style="endArrow=classic;html=1;rounded=0;" parent="1" edge="1">
          <mxGeometry width="50" height="50" relative="1" as="geometry">
            <mxPoint x="220" y="560" as="sourcePoint" />
            <mxPoint x="300" y="560" as="targetPoint" />
          </mxGeometry>
        </mxCell>
        <mxCell id="Y7hhoJTVe6BPz_TUXUCj-8" value="reset" style="text;html=1;align=center;verticalAlign=middle;whiteSpace=wrap;rounded=0;" parent="1" vertex="1">
          <mxGeometry x="230" y="520" width="60" height="30" as="geometry" />
        </mxCell>
        <mxCell id="Y7hhoJTVe6BPz_TUXUCj-10" value="" style="endArrow=none;html=1;rounded=0;strokeWidth=2;" parent="1" edge="1">
          <mxGeometry width="50" height="50" relative="1" as="geometry">
            <mxPoint x="1840" y="165" as="sourcePoint" />
            <mxPoint x="1840" y="865" as="targetPoint" />
          </mxGeometry>
        </mxCell>
        <mxCell id="Y7hhoJTVe6BPz_TUXUCj-11" value="" style="endArrow=classic;html=1;rounded=0;" parent="1" edge="1">
          <mxGeometry width="50" height="50" relative="1" as="geometry">
            <mxPoint x="1760" y="265" as="sourcePoint" />
            <mxPoint x="1840" y="265" as="targetPoint" />
          </mxGeometry>
        </mxCell>
        <mxCell id="Y7hhoJTVe6BPz_TUXUCj-12" value="outM[16]" style="text;html=1;align=center;verticalAlign=middle;whiteSpace=wrap;rounded=0;direction=west;" parent="1" vertex="1">
          <mxGeometry x="1770" y="235" width="60" height="30" as="geometry" />
        </mxCell>
        <mxCell id="Y7hhoJTVe6BPz_TUXUCj-13" value="" style="endArrow=classic;html=1;rounded=0;" parent="1" edge="1">
          <mxGeometry width="50" height="50" relative="1" as="geometry">
            <mxPoint x="1760" y="525" as="sourcePoint" />
            <mxPoint x="1840" y="525" as="targetPoint" />
          </mxGeometry>
        </mxCell>
        <mxCell id="Y7hhoJTVe6BPz_TUXUCj-14" value="writeM" style="text;html=1;align=center;verticalAlign=middle;whiteSpace=wrap;rounded=0;direction=west;" parent="1" vertex="1">
          <mxGeometry x="1760" y="495" width="80" height="30" as="geometry" />
        </mxCell>
        <mxCell id="Y7hhoJTVe6BPz_TUXUCj-15" value="" style="endArrow=classic;html=1;rounded=0;" parent="1" edge="1">
          <mxGeometry width="50" height="50" relative="1" as="geometry">
            <mxPoint x="1760" y="630" as="sourcePoint" />
            <mxPoint x="1840" y="630" as="targetPoint" />
          </mxGeometry>
        </mxCell>
        <mxCell id="Y7hhoJTVe6BPz_TUXUCj-16" value="addressM[15]" style="text;html=1;align=center;verticalAlign=middle;whiteSpace=wrap;rounded=0;direction=west;" parent="1" vertex="1">
          <mxGeometry x="1750" y="595" width="100" height="30" as="geometry" />
        </mxCell>
        <mxCell id="Y7hhoJTVe6BPz_TUXUCj-17" value="" style="endArrow=classic;html=1;rounded=0;" parent="1" edge="1">
          <mxGeometry width="50" height="50" relative="1" as="geometry">
            <mxPoint x="1760" y="775" as="sourcePoint" />
            <mxPoint x="1840" y="775" as="targetPoint" />
          </mxGeometry>
        </mxCell>
        <mxCell id="Y7hhoJTVe6BPz_TUXUCj-18" value="pc[15]" style="text;html=1;align=center;verticalAlign=middle;whiteSpace=wrap;rounded=0;direction=west;" parent="1" vertex="1">
          <mxGeometry x="1775" y="745" width="60" height="30" as="geometry" />
        </mxCell>
        <mxCell id="Y7hhoJTVe6BPz_TUXUCj-19" value="&lt;div&gt;&amp;nbsp; &amp;nbsp; // A instruction: 0vvvvvvvvvvvvvvv&lt;/div&gt;&lt;div&gt;&amp;nbsp; &amp;nbsp; // C instruction: 1xxaccccccdddjjj&lt;/div&gt;" style="text;html=1;align=left;verticalAlign=middle;resizable=0;points=[];autosize=1;strokeColor=none;fillColor=none;fontFamily=Courier New;fontStyle=0;fontSize=11;" parent="1" vertex="1">
          <mxGeometry x="920" y="40" width="270" height="40" as="geometry" />
        </mxCell>
        <mxCell id="Y7hhoJTVe6BPz_TUXUCj-28" value="" style="group;movable=1;resizable=1;rotatable=1;deletable=1;editable=1;locked=0;connectable=1;" parent="1" vertex="1" connectable="0">
          <mxGeometry x="1180" y="390" width="170" height="90" as="geometry" />
        </mxCell>
        <mxCell id="Y7hhoJTVe6BPz_TUXUCj-20" value="D&amp;nbsp;&lt;div&gt;register&lt;/div&gt;" style="triangle;whiteSpace=wrap;html=1;align=left;container=0;movable=1;resizable=1;rotatable=1;deletable=1;editable=1;locked=0;connectable=1;" parent="Y7hhoJTVe6BPz_TUXUCj-28" vertex="1">
          <mxGeometry x="60" y="10" width="60" height="80" as="geometry" />
        </mxCell>
        <mxCell id="Y7hhoJTVe6BPz_TUXUCj-21" value="" style="endArrow=none;html=1;rounded=0;entryX=0;entryY=0.25;entryDx=0;entryDy=0;movable=1;resizable=1;rotatable=1;deletable=1;editable=1;locked=0;connectable=1;" parent="Y7hhoJTVe6BPz_TUXUCj-28" target="Y7hhoJTVe6BPz_TUXUCj-20" edge="1">
          <mxGeometry width="50" height="50" relative="1" as="geometry">
            <mxPoint x="20" y="30" as="sourcePoint" />
            <mxPoint x="90" y="120" as="targetPoint" />
          </mxGeometry>
        </mxCell>
        <mxCell id="Y7hhoJTVe6BPz_TUXUCj-22" value="" style="endArrow=none;html=1;rounded=0;entryX=0;entryY=0.75;entryDx=0;entryDy=0;movable=1;resizable=1;rotatable=1;deletable=1;editable=1;locked=0;connectable=1;" parent="Y7hhoJTVe6BPz_TUXUCj-28" target="Y7hhoJTVe6BPz_TUXUCj-20" edge="1">
          <mxGeometry width="50" height="50" relative="1" as="geometry">
            <mxPoint x="20" y="70" as="sourcePoint" />
            <mxPoint x="70" y="40" as="targetPoint" />
          </mxGeometry>
        </mxCell>
        <mxCell id="Y7hhoJTVe6BPz_TUXUCj-24" value="" style="endArrow=none;html=1;rounded=0;entryX=1;entryY=0.5;entryDx=0;entryDy=0;movable=1;resizable=1;rotatable=1;deletable=1;editable=1;locked=0;connectable=1;" parent="Y7hhoJTVe6BPz_TUXUCj-28" target="Y7hhoJTVe6BPz_TUXUCj-20" edge="1">
          <mxGeometry width="50" height="50" relative="1" as="geometry">
            <mxPoint x="160" y="50" as="sourcePoint" />
            <mxPoint x="100" y="80" as="targetPoint" />
          </mxGeometry>
        </mxCell>
        <mxCell id="Y7hhoJTVe6BPz_TUXUCj-25" value="in&lt;span style=&quot;background-color: initial;&quot;&gt;[16]&lt;/span&gt;" style="text;html=1;align=center;verticalAlign=middle;whiteSpace=wrap;rounded=0;movable=1;resizable=1;rotatable=1;deletable=1;editable=1;locked=0;connectable=1;" parent="Y7hhoJTVe6BPz_TUXUCj-28" vertex="1">
          <mxGeometry width="60" height="30" as="geometry" />
        </mxCell>
        <mxCell id="Y7hhoJTVe6BPz_TUXUCj-26" value="out[16]" style="text;html=1;align=center;verticalAlign=middle;whiteSpace=wrap;rounded=0;movable=1;resizable=1;rotatable=1;deletable=1;editable=1;locked=0;connectable=1;" parent="Y7hhoJTVe6BPz_TUXUCj-28" vertex="1">
          <mxGeometry x="110" y="20" width="60" height="30" as="geometry" />
        </mxCell>
        <mxCell id="Y7hhoJTVe6BPz_TUXUCj-27" value="load" style="text;html=1;align=center;verticalAlign=middle;whiteSpace=wrap;rounded=0;movable=1;resizable=1;rotatable=1;deletable=1;editable=1;locked=0;connectable=1;" parent="Y7hhoJTVe6BPz_TUXUCj-28" vertex="1">
          <mxGeometry y="40" width="60" height="30" as="geometry" />
        </mxCell>
        <mxCell id="Y7hhoJTVe6BPz_TUXUCj-43" value="" style="group" parent="1" vertex="1" connectable="0">
          <mxGeometry x="730" y="390" width="360" height="155" as="geometry" />
        </mxCell>
        <mxCell id="Y7hhoJTVe6BPz_TUXUCj-29" value="ALU" style="shape=trapezoid;perimeter=trapezoidPerimeter;whiteSpace=wrap;html=1;fixedSize=1;" parent="Y7hhoJTVe6BPz_TUXUCj-43" vertex="1">
          <mxGeometry x="60" y="17.5" width="240" height="115" as="geometry" />
        </mxCell>
        <mxCell id="Y7hhoJTVe6BPz_TUXUCj-30" value="" style="endArrow=none;html=1;rounded=0;entryX=0;entryY=0;entryDx=0;entryDy=0;" parent="Y7hhoJTVe6BPz_TUXUCj-43" target="Y7hhoJTVe6BPz_TUXUCj-29" edge="1">
          <mxGeometry width="50" height="50" relative="1" as="geometry">
            <mxPoint y="26" as="sourcePoint" />
            <mxPoint x="50" y="10" as="targetPoint" />
          </mxGeometry>
        </mxCell>
        <mxCell id="Y7hhoJTVe6BPz_TUXUCj-31" value="" style="endArrow=none;html=1;rounded=0;entryX=0;entryY=0.5;entryDx=0;entryDy=0;" parent="Y7hhoJTVe6BPz_TUXUCj-43" target="Y7hhoJTVe6BPz_TUXUCj-29" edge="1">
          <mxGeometry width="50" height="50" relative="1" as="geometry">
            <mxPoint y="75" as="sourcePoint" />
            <mxPoint x="88" y="36" as="targetPoint" />
          </mxGeometry>
        </mxCell>
        <mxCell id="Y7hhoJTVe6BPz_TUXUCj-32" value="x[16]" style="text;html=1;align=center;verticalAlign=middle;whiteSpace=wrap;rounded=0;" parent="Y7hhoJTVe6BPz_TUXUCj-43" vertex="1">
          <mxGeometry width="60" height="30" as="geometry" />
        </mxCell>
        <mxCell id="Y7hhoJTVe6BPz_TUXUCj-33" value="y[16]" style="text;html=1;align=center;verticalAlign=middle;whiteSpace=wrap;rounded=0;" parent="Y7hhoJTVe6BPz_TUXUCj-43" vertex="1">
          <mxGeometry y="45" width="60" height="30" as="geometry" />
        </mxCell>
        <mxCell id="Y7hhoJTVe6BPz_TUXUCj-34" value="zx |&amp;nbsp; &amp;nbsp;nx |&amp;nbsp; &amp;nbsp;zy |&amp;nbsp; &amp;nbsp;ny |&amp;nbsp; &amp;nbsp;f&amp;nbsp;&lt;span style=&quot;background-color: initial;&quot;&gt;|&amp;nbsp; &amp;nbsp;no |&lt;/span&gt;" style="text;html=1;align=center;verticalAlign=middle;resizable=0;points=[];autosize=1;strokeColor=none;fillColor=none;" parent="Y7hhoJTVe6BPz_TUXUCj-43" vertex="1">
          <mxGeometry x="80" y="125" width="180" height="30" as="geometry" />
        </mxCell>
        <mxCell id="Y7hhoJTVe6BPz_TUXUCj-35" value="" style="endArrow=none;html=1;rounded=0;entryX=1;entryY=0;entryDx=0;entryDy=0;" parent="Y7hhoJTVe6BPz_TUXUCj-43" edge="1">
          <mxGeometry width="50" height="50" relative="1" as="geometry">
            <mxPoint x="360" y="29.65" as="sourcePoint" />
            <mxPoint x="281.53846153846166" y="29.99615384615381" as="targetPoint" />
          </mxGeometry>
        </mxCell>
        <mxCell id="Y7hhoJTVe6BPz_TUXUCj-36" value="" style="endArrow=none;html=1;rounded=0;entryX=1;entryY=0.5;entryDx=0;entryDy=0;" parent="Y7hhoJTVe6BPz_TUXUCj-43" target="Y7hhoJTVe6BPz_TUXUCj-29" edge="1">
          <mxGeometry width="50" height="50" relative="1" as="geometry">
            <mxPoint x="360" y="75" as="sourcePoint" />
            <mxPoint x="320" y="70" as="targetPoint" />
            <Array as="points">
              <mxPoint x="320" y="75" />
            </Array>
          </mxGeometry>
        </mxCell>
        <mxCell id="Y7hhoJTVe6BPz_TUXUCj-38" value="" style="endArrow=none;html=1;rounded=0;entryX=0.991;entryY=0.87;entryDx=0;entryDy=0;entryPerimeter=0;" parent="Y7hhoJTVe6BPz_TUXUCj-43" target="Y7hhoJTVe6BPz_TUXUCj-29" edge="1">
          <mxGeometry width="50" height="50" relative="1" as="geometry">
            <mxPoint x="360" y="118" as="sourcePoint" />
            <mxPoint x="240" y="20" as="targetPoint" />
          </mxGeometry>
        </mxCell>
        <mxCell id="Y7hhoJTVe6BPz_TUXUCj-39" value="out[16]" style="text;html=1;align=center;verticalAlign=middle;whiteSpace=wrap;rounded=0;" parent="Y7hhoJTVe6BPz_TUXUCj-43" vertex="1">
          <mxGeometry x="290" width="60" height="30" as="geometry" />
        </mxCell>
        <mxCell id="Y7hhoJTVe6BPz_TUXUCj-40" value="zr" style="text;html=1;align=center;verticalAlign=middle;whiteSpace=wrap;rounded=0;movable=1;resizable=1;rotatable=1;deletable=1;editable=1;locked=0;connectable=1;" parent="Y7hhoJTVe6BPz_TUXUCj-43" vertex="1">
          <mxGeometry x="290" y="45" width="60" height="30" as="geometry" />
        </mxCell>
        <mxCell id="Y7hhoJTVe6BPz_TUXUCj-41" value="ng" style="text;html=1;align=center;verticalAlign=middle;whiteSpace=wrap;rounded=0;movable=1;resizable=1;rotatable=1;deletable=1;editable=1;locked=0;connectable=1;" parent="Y7hhoJTVe6BPz_TUXUCj-43" vertex="1">
          <mxGeometry x="290" y="90" width="60" height="30" as="geometry" />
        </mxCell>
        <mxCell id="Y7hhoJTVe6BPz_TUXUCj-49" value="" style="endArrow=none;html=1;rounded=0;exitX=0.901;exitY=0.982;exitDx=0;exitDy=0;exitPerimeter=0;" parent="1" source="Y7hhoJTVe6BPz_TUXUCj-6" target="Y7hhoJTVe6BPz_TUXUCj-34" edge="1">
          <mxGeometry width="50" height="50" relative="1" as="geometry">
            <mxPoint x="400" y="440" as="sourcePoint" />
            <mxPoint x="890" y="560" as="targetPoint" />
            <Array as="points">
              <mxPoint x="360" y="440" />
              <mxPoint x="360" y="590" />
              <mxPoint x="900" y="590" />
            </Array>
          </mxGeometry>
        </mxCell>
        <mxCell id="Y7hhoJTVe6BPz_TUXUCj-50" value="instruction[11..6]" style="text;html=1;align=center;verticalAlign=middle;whiteSpace=wrap;rounded=0;" parent="1" vertex="1">
          <mxGeometry x="820" y="590" width="60" height="30" as="geometry" />
        </mxCell>
        <mxCell id="Y7hhoJTVe6BPz_TUXUCj-52" value="instruction[4]" style="text;html=1;align=center;verticalAlign=middle;whiteSpace=wrap;rounded=0;" parent="1" vertex="1">
          <mxGeometry x="580" y="625" width="60" height="30" as="geometry" />
        </mxCell>
        <mxCell id="Y7hhoJTVe6BPz_TUXUCj-53" value="" style="endArrow=none;html=1;rounded=0;strokeColor=#ff0000;entryX=1;entryY=1;entryDx=0;entryDy=0;" parent="1" target="Y7hhoJTVe6BPz_TUXUCj-26" edge="1">
          <mxGeometry width="50" height="50" relative="1" as="geometry">
            <mxPoint x="730" y="410" as="sourcePoint" />
            <mxPoint x="1360" y="440" as="targetPoint" />
            <Array as="points">
              <mxPoint x="730" y="290" />
              <mxPoint x="1350" y="290" />
            </Array>
          </mxGeometry>
        </mxCell>
        <mxCell id="Y7hhoJTVe6BPz_TUXUCj-68" value="" style="group" parent="1" vertex="1" connectable="0">
          <mxGeometry x="1580" y="690" width="180" height="140" as="geometry" />
        </mxCell>
        <mxCell id="Y7hhoJTVe6BPz_TUXUCj-56" value="PC" style="triangle;whiteSpace=wrap;html=1;align=center;container=0;movable=1;resizable=1;rotatable=1;deletable=1;editable=1;locked=0;connectable=1;" parent="Y7hhoJTVe6BPz_TUXUCj-68" vertex="1">
          <mxGeometry x="60" y="10" width="60" height="130" as="geometry" />
        </mxCell>
        <mxCell id="Y7hhoJTVe6BPz_TUXUCj-57" value="" style="endArrow=none;html=1;rounded=0;movable=1;resizable=1;rotatable=1;deletable=1;editable=1;locked=0;connectable=1;entryX=0.009;entryY=0.15;entryDx=0;entryDy=0;entryPerimeter=0;" parent="Y7hhoJTVe6BPz_TUXUCj-68" target="Y7hhoJTVe6BPz_TUXUCj-56" edge="1">
          <mxGeometry width="50" height="50" relative="1" as="geometry">
            <mxPoint x="10" y="30" as="sourcePoint" />
            <mxPoint x="61" y="32" as="targetPoint" />
          </mxGeometry>
        </mxCell>
        <mxCell id="Y7hhoJTVe6BPz_TUXUCj-58" value="" style="endArrow=none;html=1;rounded=0;entryX=0.007;entryY=0.851;entryDx=0;entryDy=0;movable=1;resizable=1;rotatable=1;deletable=1;editable=1;locked=0;connectable=1;entryPerimeter=0;" parent="Y7hhoJTVe6BPz_TUXUCj-68" target="Y7hhoJTVe6BPz_TUXUCj-56" edge="1">
          <mxGeometry width="50" height="50" relative="1" as="geometry">
            <mxPoint x="10" y="120" as="sourcePoint" />
            <mxPoint x="70" y="40" as="targetPoint" />
          </mxGeometry>
        </mxCell>
        <mxCell id="Y7hhoJTVe6BPz_TUXUCj-59" value="" style="endArrow=none;html=1;rounded=0;entryX=1;entryY=0.5;entryDx=0;entryDy=0;movable=1;resizable=1;rotatable=1;deletable=1;editable=1;locked=0;connectable=1;" parent="Y7hhoJTVe6BPz_TUXUCj-68" target="Y7hhoJTVe6BPz_TUXUCj-56" edge="1">
          <mxGeometry width="50" height="50" relative="1" as="geometry">
            <mxPoint x="170" y="75" as="sourcePoint" />
            <mxPoint x="100" y="80" as="targetPoint" />
          </mxGeometry>
        </mxCell>
        <mxCell id="Y7hhoJTVe6BPz_TUXUCj-60" value="in&lt;span style=&quot;background-color: initial;&quot;&gt;[16]&lt;/span&gt;" style="text;html=1;align=center;verticalAlign=middle;whiteSpace=wrap;rounded=0;movable=1;resizable=1;rotatable=1;deletable=1;editable=1;locked=0;connectable=1;" parent="Y7hhoJTVe6BPz_TUXUCj-68" vertex="1">
          <mxGeometry width="60" height="30" as="geometry" />
        </mxCell>
        <mxCell id="Y7hhoJTVe6BPz_TUXUCj-61" value="out[16]" style="text;html=1;align=center;verticalAlign=middle;whiteSpace=wrap;rounded=0;movable=1;resizable=1;rotatable=1;deletable=1;editable=1;locked=0;connectable=1;" parent="Y7hhoJTVe6BPz_TUXUCj-68" vertex="1">
          <mxGeometry x="120" y="50" width="60" height="30" as="geometry" />
        </mxCell>
        <mxCell id="Y7hhoJTVe6BPz_TUXUCj-62" value="load" style="text;html=1;align=center;verticalAlign=middle;whiteSpace=wrap;rounded=0;movable=1;resizable=1;rotatable=1;deletable=1;editable=1;locked=0;connectable=1;" parent="Y7hhoJTVe6BPz_TUXUCj-68" vertex="1">
          <mxGeometry y="60" width="60" height="30" as="geometry" />
        </mxCell>
        <mxCell id="Y7hhoJTVe6BPz_TUXUCj-64" value="" style="endArrow=none;html=1;rounded=0;entryX=-0.009;entryY=0.378;entryDx=0;entryDy=0;entryPerimeter=0;" parent="Y7hhoJTVe6BPz_TUXUCj-68" target="Y7hhoJTVe6BPz_TUXUCj-56" edge="1">
          <mxGeometry width="50" height="50" relative="1" as="geometry">
            <mxPoint x="10" y="59" as="sourcePoint" />
            <mxPoint x="130" y="60" as="targetPoint" />
          </mxGeometry>
        </mxCell>
        <mxCell id="Y7hhoJTVe6BPz_TUXUCj-65" value="" style="endArrow=none;html=1;rounded=0;" parent="Y7hhoJTVe6BPz_TUXUCj-68" edge="1">
          <mxGeometry width="50" height="50" relative="1" as="geometry">
            <mxPoint x="10" y="90" as="sourcePoint" />
            <mxPoint x="61" y="90" as="targetPoint" />
          </mxGeometry>
        </mxCell>
        <mxCell id="Y7hhoJTVe6BPz_TUXUCj-66" value="reset" style="text;html=1;align=center;verticalAlign=middle;whiteSpace=wrap;rounded=0;movable=1;resizable=1;rotatable=1;deletable=1;editable=1;locked=0;connectable=1;" parent="Y7hhoJTVe6BPz_TUXUCj-68" vertex="1">
          <mxGeometry y="30" width="60" height="30" as="geometry" />
        </mxCell>
        <mxCell id="Y7hhoJTVe6BPz_TUXUCj-67" value="inc" style="text;html=1;align=center;verticalAlign=middle;whiteSpace=wrap;rounded=0;movable=1;resizable=1;rotatable=1;deletable=1;editable=1;locked=0;connectable=1;" parent="Y7hhoJTVe6BPz_TUXUCj-68" vertex="1">
          <mxGeometry y="90" width="60" height="30" as="geometry" />
        </mxCell>
        <mxCell id="Y7hhoJTVe6BPz_TUXUCj-83" value="" style="endArrow=none;html=1;rounded=0;entryX=1;entryY=1;entryDx=0;entryDy=0;" parent="1" target="Y7hhoJTVe6BPz_TUXUCj-111" edge="1">
          <mxGeometry width="50" height="50" relative="1" as="geometry">
            <mxPoint x="1740" y="620" as="sourcePoint" />
            <mxPoint x="800" y="240" as="targetPoint" />
            <Array as="points">
              <mxPoint x="1380" y="620" />
              <mxPoint x="1380" y="130" />
            </Array>
          </mxGeometry>
        </mxCell>
        <mxCell id="Y7hhoJTVe6BPz_TUXUCj-84" value="" style="endArrow=none;html=1;rounded=0;" parent="1" edge="1">
          <mxGeometry width="50" height="50" relative="1" as="geometry">
            <mxPoint x="360" y="188.95" as="sourcePoint" />
            <mxPoint x="560" y="188.95" as="targetPoint" />
          </mxGeometry>
        </mxCell>
        <mxCell id="Y7hhoJTVe6BPz_TUXUCj-85" value="instruction[15&lt;span style=&quot;background-color: initial;&quot;&gt;]&lt;/span&gt;" style="text;html=1;align=center;verticalAlign=middle;whiteSpace=wrap;rounded=0;" parent="1" vertex="1">
          <mxGeometry x="380" y="160" width="60" height="30" as="geometry" />
        </mxCell>
        <mxCell id="Y7hhoJTVe6BPz_TUXUCj-86" value="" style="endArrow=none;html=1;rounded=0;entryX=0;entryY=1;entryDx=0;entryDy=0;" parent="1" edge="1" target="2mrpT5TsffnAwhxBwvwQ-130">
          <mxGeometry width="50" height="50" relative="1" as="geometry">
            <mxPoint x="360" y="440" as="sourcePoint" />
            <mxPoint x="460" y="220" as="targetPoint" />
            <Array as="points">
              <mxPoint x="360" y="90" />
            </Array>
          </mxGeometry>
        </mxCell>
        <mxCell id="Y7hhoJTVe6BPz_TUXUCj-87" value="instruction[0..14&lt;span style=&quot;background-color: initial;&quot;&gt;]&lt;/span&gt;" style="text;html=1;align=center;verticalAlign=middle;whiteSpace=wrap;rounded=0;" parent="1" vertex="1">
          <mxGeometry x="380" y="60" width="60" height="30" as="geometry" />
        </mxCell>
        <mxCell id="Y7hhoJTVe6BPz_TUXUCj-88" value="" style="group" parent="1" vertex="1" connectable="0">
          <mxGeometry x="570" y="415" width="170" height="130" as="geometry" />
        </mxCell>
        <mxCell id="Y7hhoJTVe6BPz_TUXUCj-89" value="Mux16" style="shape=or;whiteSpace=wrap;html=1;direction=east;" parent="Y7hhoJTVe6BPz_TUXUCj-88" vertex="1">
          <mxGeometry x="50" y="10" width="60" height="80" as="geometry" />
        </mxCell>
        <mxCell id="Y7hhoJTVe6BPz_TUXUCj-90" value="" style="endArrow=none;html=1;rounded=0;entryX=0;entryY=0.25;entryDx=0;entryDy=0;entryPerimeter=0;" parent="Y7hhoJTVe6BPz_TUXUCj-88" target="Y7hhoJTVe6BPz_TUXUCj-89" edge="1">
          <mxGeometry width="50" height="50" relative="1" as="geometry">
            <mxPoint x="10" y="30" as="sourcePoint" />
            <mxPoint x="110" y="150" as="targetPoint" />
          </mxGeometry>
        </mxCell>
        <mxCell id="Y7hhoJTVe6BPz_TUXUCj-91" value="" style="endArrow=none;html=1;rounded=0;entryX=0;entryY=0.75;entryDx=0;entryDy=0;entryPerimeter=0;" parent="Y7hhoJTVe6BPz_TUXUCj-88" target="Y7hhoJTVe6BPz_TUXUCj-89" edge="1">
          <mxGeometry width="50" height="50" relative="1" as="geometry">
            <mxPoint x="10" y="70" as="sourcePoint" />
            <mxPoint x="110" y="150" as="targetPoint" />
          </mxGeometry>
        </mxCell>
        <mxCell id="Y7hhoJTVe6BPz_TUXUCj-92" value="" style="endArrow=none;html=1;rounded=0;entryX=0.158;entryY=0.993;entryDx=0;entryDy=0;entryPerimeter=0;" parent="Y7hhoJTVe6BPz_TUXUCj-88" target="Y7hhoJTVe6BPz_TUXUCj-89" edge="1">
          <mxGeometry width="50" height="50" relative="1" as="geometry">
            <mxPoint x="59" y="130" as="sourcePoint" />
            <mxPoint x="110" y="150" as="targetPoint" />
          </mxGeometry>
        </mxCell>
        <mxCell id="Y7hhoJTVe6BPz_TUXUCj-93" value="" style="endArrow=none;html=1;rounded=0;entryX=1;entryY=0.5;entryDx=0;entryDy=0;entryPerimeter=0;" parent="Y7hhoJTVe6BPz_TUXUCj-88" target="Y7hhoJTVe6BPz_TUXUCj-89" edge="1">
          <mxGeometry width="50" height="50" relative="1" as="geometry">
            <mxPoint x="150" y="50" as="sourcePoint" />
            <mxPoint x="110" y="150" as="targetPoint" />
          </mxGeometry>
        </mxCell>
        <mxCell id="Y7hhoJTVe6BPz_TUXUCj-94" value="a[16]" style="text;html=1;align=center;verticalAlign=middle;whiteSpace=wrap;rounded=0;" parent="Y7hhoJTVe6BPz_TUXUCj-88" vertex="1">
          <mxGeometry width="60" height="30" as="geometry" />
        </mxCell>
        <mxCell id="Y7hhoJTVe6BPz_TUXUCj-95" value="b[16]" style="text;html=1;align=center;verticalAlign=middle;whiteSpace=wrap;rounded=0;" parent="Y7hhoJTVe6BPz_TUXUCj-88" vertex="1">
          <mxGeometry y="40" width="60" height="30" as="geometry" />
        </mxCell>
        <mxCell id="Y7hhoJTVe6BPz_TUXUCj-96" value="sel" style="text;html=1;align=center;verticalAlign=middle;whiteSpace=wrap;rounded=0;" parent="Y7hhoJTVe6BPz_TUXUCj-88" vertex="1">
          <mxGeometry x="50" y="90" width="60" height="30" as="geometry" />
        </mxCell>
        <mxCell id="Y7hhoJTVe6BPz_TUXUCj-97" value="out[16]" style="text;html=1;align=center;verticalAlign=middle;whiteSpace=wrap;rounded=0;" parent="Y7hhoJTVe6BPz_TUXUCj-88" vertex="1">
          <mxGeometry x="110" y="20" width="60" height="30" as="geometry" />
        </mxCell>
        <mxCell id="Y7hhoJTVe6BPz_TUXUCj-98" value="" style="endArrow=none;html=1;rounded=0;" parent="1" edge="1">
          <mxGeometry width="50" height="50" relative="1" as="geometry">
            <mxPoint x="630" y="550" as="sourcePoint" />
            <mxPoint x="360" y="550" as="targetPoint" />
            <Array as="points">
              <mxPoint x="480" y="550" />
            </Array>
          </mxGeometry>
        </mxCell>
        <mxCell id="Y7hhoJTVe6BPz_TUXUCj-99" value="instruction[12&lt;span style=&quot;background-color: initial;&quot;&gt;]&lt;/span&gt;" style="text;html=1;align=center;verticalAlign=middle;whiteSpace=wrap;rounded=0;" parent="1" vertex="1">
          <mxGeometry x="480" y="520" width="60" height="30" as="geometry" />
        </mxCell>
        <mxCell id="Y7hhoJTVe6BPz_TUXUCj-104" value="" style="endArrow=none;html=1;rounded=0;entryX=0;entryY=1;entryDx=0;entryDy=0;dashed=1;" parent="1" target="Y7hhoJTVe6BPz_TUXUCj-95" edge="1">
          <mxGeometry width="50" height="50" relative="1" as="geometry">
            <mxPoint x="310" y="320" as="sourcePoint" />
            <mxPoint x="560" y="440" as="targetPoint" />
            <Array as="points">
              <mxPoint x="340" y="320" />
              <mxPoint x="340" y="485" />
            </Array>
          </mxGeometry>
        </mxCell>
        <mxCell id="Y7hhoJTVe6BPz_TUXUCj-105" value="" style="group;movable=1;resizable=1;rotatable=1;deletable=1;editable=1;locked=0;connectable=1;" parent="1" vertex="1" connectable="0">
          <mxGeometry x="650" y="80" width="170" height="90" as="geometry" />
        </mxCell>
        <mxCell id="Y7hhoJTVe6BPz_TUXUCj-106" value="A&amp;nbsp;&lt;div&gt;register&lt;/div&gt;" style="triangle;whiteSpace=wrap;html=1;align=left;container=0;movable=1;resizable=1;rotatable=1;deletable=1;editable=1;locked=0;connectable=1;" parent="Y7hhoJTVe6BPz_TUXUCj-105" vertex="1">
          <mxGeometry x="60" y="10" width="60" height="80" as="geometry" />
        </mxCell>
        <mxCell id="Y7hhoJTVe6BPz_TUXUCj-107" value="" style="endArrow=none;html=1;rounded=0;entryX=0;entryY=0.25;entryDx=0;entryDy=0;movable=1;resizable=1;rotatable=1;deletable=1;editable=1;locked=0;connectable=1;" parent="Y7hhoJTVe6BPz_TUXUCj-105" target="Y7hhoJTVe6BPz_TUXUCj-106" edge="1">
          <mxGeometry width="50" height="50" relative="1" as="geometry">
            <mxPoint x="20" y="30" as="sourcePoint" />
            <mxPoint x="90" y="120" as="targetPoint" />
          </mxGeometry>
        </mxCell>
        <mxCell id="Y7hhoJTVe6BPz_TUXUCj-108" value="" style="endArrow=none;html=1;rounded=0;entryX=0;entryY=0.75;entryDx=0;entryDy=0;movable=1;resizable=1;rotatable=1;deletable=1;editable=1;locked=0;connectable=1;" parent="Y7hhoJTVe6BPz_TUXUCj-105" target="Y7hhoJTVe6BPz_TUXUCj-106" edge="1">
          <mxGeometry width="50" height="50" relative="1" as="geometry">
            <mxPoint x="20" y="70" as="sourcePoint" />
            <mxPoint x="70" y="40" as="targetPoint" />
          </mxGeometry>
        </mxCell>
        <mxCell id="Y7hhoJTVe6BPz_TUXUCj-109" value="" style="endArrow=none;html=1;rounded=0;entryX=1;entryY=0.5;entryDx=0;entryDy=0;movable=1;resizable=1;rotatable=1;deletable=1;editable=1;locked=0;connectable=1;" parent="Y7hhoJTVe6BPz_TUXUCj-105" target="Y7hhoJTVe6BPz_TUXUCj-106" edge="1">
          <mxGeometry width="50" height="50" relative="1" as="geometry">
            <mxPoint x="160" y="50" as="sourcePoint" />
            <mxPoint x="100" y="80" as="targetPoint" />
          </mxGeometry>
        </mxCell>
        <mxCell id="Y7hhoJTVe6BPz_TUXUCj-110" value="in&lt;span style=&quot;background-color: initial;&quot;&gt;[16]&lt;/span&gt;" style="text;html=1;align=center;verticalAlign=middle;whiteSpace=wrap;rounded=0;movable=1;resizable=1;rotatable=1;deletable=1;editable=1;locked=0;connectable=1;" parent="Y7hhoJTVe6BPz_TUXUCj-105" vertex="1">
          <mxGeometry width="60" height="30" as="geometry" />
        </mxCell>
        <mxCell id="Y7hhoJTVe6BPz_TUXUCj-111" value="out[16]" style="text;html=1;align=center;verticalAlign=middle;whiteSpace=wrap;rounded=0;movable=1;resizable=1;rotatable=1;deletable=1;editable=1;locked=0;connectable=1;" parent="Y7hhoJTVe6BPz_TUXUCj-105" vertex="1">
          <mxGeometry x="110" y="20" width="60" height="30" as="geometry" />
        </mxCell>
        <mxCell id="Y7hhoJTVe6BPz_TUXUCj-112" value="load" style="text;html=1;align=center;verticalAlign=middle;whiteSpace=wrap;rounded=0;movable=1;resizable=1;rotatable=1;deletable=1;editable=1;locked=0;connectable=1;" parent="Y7hhoJTVe6BPz_TUXUCj-105" vertex="1">
          <mxGeometry y="40" width="60" height="30" as="geometry" />
        </mxCell>
        <mxCell id="Y7hhoJTVe6BPz_TUXUCj-113" value="" style="endArrow=none;html=1;rounded=0;exitX=0;exitY=1;exitDx=0;exitDy=0;entryX=0.75;entryY=1;entryDx=0;entryDy=0;" parent="1" source="Y7hhoJTVe6BPz_TUXUCj-94" edge="1" target="Y7hhoJTVe6BPz_TUXUCj-111">
          <mxGeometry width="50" height="50" relative="1" as="geometry">
            <mxPoint x="500" y="400" as="sourcePoint" />
            <mxPoint x="720" y="240" as="targetPoint" />
            <Array as="points">
              <mxPoint x="570" y="390" />
              <mxPoint x="700" y="390" />
              <mxPoint x="700" y="200" />
              <mxPoint x="805" y="200" />
            </Array>
          </mxGeometry>
        </mxCell>
        <mxCell id="Y7hhoJTVe6BPz_TUXUCj-115" value="" style="endArrow=none;html=1;rounded=0;entryX=0;entryY=0;entryDx=0;entryDy=0;" parent="1" target="Y7hhoJTVe6BPz_TUXUCj-66" edge="1">
          <mxGeometry width="50" height="50" relative="1" as="geometry">
            <mxPoint x="1380" y="510" as="sourcePoint" />
            <mxPoint x="1300" y="470" as="targetPoint" />
            <Array as="points">
              <mxPoint x="1380" y="720" />
            </Array>
          </mxGeometry>
        </mxCell>
        <mxCell id="Y7hhoJTVe6BPz_TUXUCj-132" value="" style="endArrow=none;html=1;rounded=0;" parent="1" edge="1">
          <mxGeometry width="50" height="50" relative="1" as="geometry">
            <mxPoint x="1100" y="420" as="sourcePoint" />
            <mxPoint x="1190" y="420" as="targetPoint" />
          </mxGeometry>
        </mxCell>
        <mxCell id="Y7hhoJTVe6BPz_TUXUCj-133" value="" style="endArrow=none;html=1;rounded=0;strokeColor=#0062ff;" parent="1" edge="1">
          <mxGeometry width="50" height="50" relative="1" as="geometry">
            <mxPoint x="1760" y="260" as="sourcePoint" />
            <mxPoint x="1140" y="420" as="targetPoint" />
            <Array as="points">
              <mxPoint x="1140" y="260" />
            </Array>
          </mxGeometry>
        </mxCell>
        <mxCell id="2mrpT5TsffnAwhxBwvwQ-9" value="" style="group;movable=1;resizable=1;rotatable=1;deletable=1;editable=1;locked=0;connectable=1;" vertex="1" connectable="0" parent="1">
          <mxGeometry x="1230" y="730" width="50" height="80" as="geometry" />
        </mxCell>
        <mxCell id="2mrpT5TsffnAwhxBwvwQ-4" value="And" style="rhombus;whiteSpace=wrap;html=1;movable=1;resizable=1;rotatable=1;deletable=1;editable=1;locked=0;connectable=1;" vertex="1" parent="2mrpT5TsffnAwhxBwvwQ-9">
          <mxGeometry y="18.181818181818183" width="50" height="48.48484848484849" as="geometry" />
        </mxCell>
        <mxCell id="2mrpT5TsffnAwhxBwvwQ-5" value="a" style="text;html=1;align=center;verticalAlign=middle;resizable=1;points=[];autosize=1;strokeColor=none;fillColor=none;movable=1;rotatable=1;deletable=1;editable=1;locked=0;connectable=1;" vertex="1" parent="2mrpT5TsffnAwhxBwvwQ-9">
          <mxGeometry x="21.875" y="61.81818181818181" width="25" height="24" as="geometry" />
        </mxCell>
        <mxCell id="2mrpT5TsffnAwhxBwvwQ-6" value="b" style="text;html=1;align=center;verticalAlign=middle;resizable=1;points=[];autosize=1;strokeColor=none;fillColor=none;movable=1;rotatable=1;deletable=1;editable=1;locked=0;connectable=1;" vertex="1" parent="2mrpT5TsffnAwhxBwvwQ-9">
          <mxGeometry x="21.875" width="25" height="24" as="geometry" />
        </mxCell>
        <mxCell id="2mrpT5TsffnAwhxBwvwQ-7" value="" style="endArrow=none;html=1;rounded=0;exitX=0.5;exitY=0;exitDx=0;exitDy=0;movable=1;resizable=1;rotatable=1;deletable=1;editable=1;locked=0;connectable=1;" edge="1" parent="2mrpT5TsffnAwhxBwvwQ-9" source="2mrpT5TsffnAwhxBwvwQ-4">
          <mxGeometry width="50" height="50" relative="1" as="geometry">
            <mxPoint x="-3.125" y="-4.848484848484849" as="sourcePoint" />
            <mxPoint x="25" y="1.2121212121212122" as="targetPoint" />
          </mxGeometry>
        </mxCell>
        <mxCell id="2mrpT5TsffnAwhxBwvwQ-8" value="" style="endArrow=none;html=1;rounded=0;entryX=0.5;entryY=1;entryDx=0;entryDy=0;movable=1;resizable=1;rotatable=1;deletable=1;editable=1;locked=0;connectable=1;" edge="1" parent="2mrpT5TsffnAwhxBwvwQ-9" target="2mrpT5TsffnAwhxBwvwQ-4">
          <mxGeometry width="50" height="50" relative="1" as="geometry">
            <mxPoint x="25" y="85.60000000000001" as="sourcePoint" />
            <mxPoint x="31.25" y="7.2727272727272725" as="targetPoint" />
          </mxGeometry>
        </mxCell>
        <mxCell id="2mrpT5TsffnAwhxBwvwQ-43" value="" style="endArrow=none;html=1;rounded=0;entryX=0.5;entryY=0;entryDx=0;entryDy=0;" edge="1" parent="2mrpT5TsffnAwhxBwvwQ-9" target="2mrpT5TsffnAwhxBwvwQ-9">
          <mxGeometry width="50" height="50" relative="1" as="geometry">
            <mxPoint x="-10" as="sourcePoint" />
            <mxPoint x="15" as="targetPoint" />
          </mxGeometry>
        </mxCell>
        <mxCell id="2mrpT5TsffnAwhxBwvwQ-22" value="" style="endArrow=none;html=1;rounded=0;exitX=0.083;exitY=0.992;exitDx=0;exitDy=0;exitPerimeter=0;" edge="1" parent="1" source="2mrpT5TsffnAwhxBwvwQ-5">
          <mxGeometry width="50" height="50" relative="1" as="geometry">
            <mxPoint x="980" y="840" as="sourcePoint" />
            <mxPoint x="360" y="630" as="targetPoint" />
            <Array as="points">
              <mxPoint x="1254" y="840" />
              <mxPoint x="360" y="840" />
            </Array>
          </mxGeometry>
        </mxCell>
        <mxCell id="2mrpT5TsffnAwhxBwvwQ-23" value="instruction[0]" style="text;html=1;align=center;verticalAlign=middle;whiteSpace=wrap;rounded=0;" vertex="1" parent="1">
          <mxGeometry x="810" y="840" width="60" height="30" as="geometry" />
        </mxCell>
        <mxCell id="2mrpT5TsffnAwhxBwvwQ-25" value="" style="endArrow=none;html=1;rounded=0;dashed=1;entryX=0.5;entryY=0;entryDx=0;entryDy=0;" edge="1" parent="1" target="2mrpT5TsffnAwhxBwvwQ-52">
          <mxGeometry width="50" height="50" relative="1" as="geometry">
            <mxPoint x="1090" y="470" as="sourcePoint" />
            <mxPoint x="1120" y="1060" as="targetPoint" />
            <Array as="points">
              <mxPoint x="1120" y="470" />
              <mxPoint x="1120" y="930" />
            </Array>
          </mxGeometry>
        </mxCell>
        <mxCell id="2mrpT5TsffnAwhxBwvwQ-26" value="" style="endArrow=none;html=1;rounded=0;dashed=1;entryX=0.5;entryY=0;entryDx=0;entryDy=0;" edge="1" parent="1" target="2mrpT5TsffnAwhxBwvwQ-59">
          <mxGeometry width="50" height="50" relative="1" as="geometry">
            <mxPoint x="1090" y="510" as="sourcePoint" />
            <mxPoint x="1090" y="1060" as="targetPoint" />
            <Array as="points">
              <mxPoint x="1090" y="1110" />
            </Array>
          </mxGeometry>
        </mxCell>
        <mxCell id="2mrpT5TsffnAwhxBwvwQ-27" value="" style="group;movable=1;resizable=1;rotatable=1;deletable=1;editable=1;locked=0;connectable=1;" vertex="1" connectable="0" parent="1">
          <mxGeometry x="1170" y="690" width="50" height="80" as="geometry" />
        </mxCell>
        <mxCell id="2mrpT5TsffnAwhxBwvwQ-28" value="And" style="rhombus;whiteSpace=wrap;html=1;movable=1;resizable=1;rotatable=1;deletable=1;editable=1;locked=0;connectable=1;" vertex="1" parent="2mrpT5TsffnAwhxBwvwQ-27">
          <mxGeometry y="18.181818181818183" width="50" height="48.48484848484849" as="geometry" />
        </mxCell>
        <mxCell id="2mrpT5TsffnAwhxBwvwQ-29" value="a" style="text;html=1;align=center;verticalAlign=middle;resizable=1;points=[];autosize=1;strokeColor=none;fillColor=none;movable=1;rotatable=1;deletable=1;editable=1;locked=0;connectable=1;" vertex="1" parent="2mrpT5TsffnAwhxBwvwQ-27">
          <mxGeometry x="21.875" y="61.81818181818181" width="25" height="24" as="geometry" />
        </mxCell>
        <mxCell id="2mrpT5TsffnAwhxBwvwQ-30" value="b" style="text;html=1;align=center;verticalAlign=middle;resizable=1;points=[];autosize=1;strokeColor=none;fillColor=none;movable=1;rotatable=1;deletable=1;editable=1;locked=0;connectable=1;" vertex="1" parent="2mrpT5TsffnAwhxBwvwQ-27">
          <mxGeometry x="21.875" width="25" height="24" as="geometry" />
        </mxCell>
        <mxCell id="2mrpT5TsffnAwhxBwvwQ-31" value="" style="endArrow=none;html=1;rounded=0;exitX=0.5;exitY=0;exitDx=0;exitDy=0;movable=1;resizable=1;rotatable=1;deletable=1;editable=1;locked=0;connectable=1;" edge="1" parent="2mrpT5TsffnAwhxBwvwQ-27" source="2mrpT5TsffnAwhxBwvwQ-28">
          <mxGeometry width="50" height="50" relative="1" as="geometry">
            <mxPoint x="-3.125" y="-4.848484848484849" as="sourcePoint" />
            <mxPoint x="25" y="1.2121212121212122" as="targetPoint" />
          </mxGeometry>
        </mxCell>
        <mxCell id="2mrpT5TsffnAwhxBwvwQ-32" value="" style="endArrow=none;html=1;rounded=0;entryX=0.5;entryY=1;entryDx=0;entryDy=0;movable=1;resizable=1;rotatable=1;deletable=1;editable=1;locked=0;connectable=1;" edge="1" parent="2mrpT5TsffnAwhxBwvwQ-27" target="2mrpT5TsffnAwhxBwvwQ-28">
          <mxGeometry width="50" height="50" relative="1" as="geometry">
            <mxPoint x="25" y="85.60000000000001" as="sourcePoint" />
            <mxPoint x="31.25" y="7.2727272727272725" as="targetPoint" />
          </mxGeometry>
        </mxCell>
        <mxCell id="2mrpT5TsffnAwhxBwvwQ-36" value="&lt;font style=&quot;font-size: 9px;&quot;&gt;Not&lt;/font&gt;" style="rounded=0;whiteSpace=wrap;html=1;" vertex="1" parent="1">
          <mxGeometry x="1145" y="680" width="25" height="20" as="geometry" />
        </mxCell>
        <mxCell id="2mrpT5TsffnAwhxBwvwQ-37" value="&lt;font style=&quot;font-size: 9px;&quot;&gt;Not&lt;/font&gt;" style="rounded=0;whiteSpace=wrap;html=1;" vertex="1" parent="1">
          <mxGeometry x="1140" y="760" width="25" height="20" as="geometry" />
        </mxCell>
        <mxCell id="2mrpT5TsffnAwhxBwvwQ-39" value="" style="endArrow=none;html=1;rounded=0;entryX=0;entryY=0.5;entryDx=0;entryDy=0;dashed=1;" edge="1" parent="1" target="2mrpT5TsffnAwhxBwvwQ-37">
          <mxGeometry width="50" height="50" relative="1" as="geometry">
            <mxPoint x="1120" y="770" as="sourcePoint" />
            <mxPoint x="1000" y="780" as="targetPoint" />
          </mxGeometry>
        </mxCell>
        <mxCell id="2mrpT5TsffnAwhxBwvwQ-40" value="" style="endArrow=none;html=1;rounded=0;entryX=0;entryY=0.5;entryDx=0;entryDy=0;dashed=1;" edge="1" parent="1" target="2mrpT5TsffnAwhxBwvwQ-36">
          <mxGeometry width="50" height="50" relative="1" as="geometry">
            <mxPoint x="1120" y="690" as="sourcePoint" />
            <mxPoint x="1150" y="780" as="targetPoint" />
          </mxGeometry>
        </mxCell>
        <mxCell id="2mrpT5TsffnAwhxBwvwQ-41" value="" style="endArrow=none;html=1;rounded=0;entryX=0;entryY=0.5;entryDx=0;entryDy=0;dashed=1;" edge="1" parent="1">
          <mxGeometry width="50" height="50" relative="1" as="geometry">
            <mxPoint x="1170" y="689.47" as="sourcePoint" />
            <mxPoint x="1195" y="689.47" as="targetPoint" />
          </mxGeometry>
        </mxCell>
        <mxCell id="2mrpT5TsffnAwhxBwvwQ-42" value="" style="endArrow=none;html=1;rounded=0;entryX=0;entryY=0.5;entryDx=0;entryDy=0;dashed=1;" edge="1" parent="1">
          <mxGeometry width="50" height="50" relative="1" as="geometry">
            <mxPoint x="1165" y="770" as="sourcePoint" />
            <mxPoint x="1190" y="770" as="targetPoint" />
          </mxGeometry>
        </mxCell>
        <mxCell id="2mrpT5TsffnAwhxBwvwQ-44" value="" style="endArrow=none;html=1;rounded=0;entryX=0.053;entryY=0.011;entryDx=0;entryDy=0;entryPerimeter=0;" edge="1" parent="1" target="2mrpT5TsffnAwhxBwvwQ-48">
          <mxGeometry width="50" height="50" relative="1" as="geometry">
            <mxPoint x="1280" y="770" as="sourcePoint" />
            <mxPoint x="1315" y="770" as="targetPoint" />
            <Array as="points">
              <mxPoint x="1313" y="770" />
            </Array>
          </mxGeometry>
        </mxCell>
        <mxCell id="2mrpT5TsffnAwhxBwvwQ-45" value="" style="group;movable=1;resizable=1;rotatable=1;deletable=1;editable=1;locked=0;connectable=1;" vertex="1" connectable="0" parent="1">
          <mxGeometry x="1290" y="840" width="50" height="80" as="geometry" />
        </mxCell>
        <mxCell id="2mrpT5TsffnAwhxBwvwQ-46" value="or" style="rhombus;whiteSpace=wrap;html=1;movable=1;resizable=1;rotatable=1;deletable=1;editable=1;locked=0;connectable=1;" vertex="1" parent="2mrpT5TsffnAwhxBwvwQ-45">
          <mxGeometry y="18.181818181818183" width="50" height="48.48484848484849" as="geometry" />
        </mxCell>
        <mxCell id="2mrpT5TsffnAwhxBwvwQ-47" value="a" style="text;html=1;align=center;verticalAlign=middle;resizable=1;points=[];autosize=1;strokeColor=none;fillColor=none;movable=1;rotatable=1;deletable=1;editable=1;locked=0;connectable=1;" vertex="1" parent="2mrpT5TsffnAwhxBwvwQ-45">
          <mxGeometry x="21.875" y="61.81818181818181" width="25" height="24" as="geometry" />
        </mxCell>
        <mxCell id="2mrpT5TsffnAwhxBwvwQ-48" value="b" style="text;html=1;align=center;verticalAlign=middle;resizable=1;points=[];autosize=1;strokeColor=none;fillColor=none;movable=1;rotatable=1;deletable=1;editable=1;locked=0;connectable=1;" vertex="1" parent="2mrpT5TsffnAwhxBwvwQ-45">
          <mxGeometry x="21.875" width="25" height="24" as="geometry" />
        </mxCell>
        <mxCell id="2mrpT5TsffnAwhxBwvwQ-49" value="" style="endArrow=none;html=1;rounded=0;exitX=0.5;exitY=0;exitDx=0;exitDy=0;movable=1;resizable=1;rotatable=1;deletable=1;editable=1;locked=0;connectable=1;" edge="1" parent="2mrpT5TsffnAwhxBwvwQ-45" source="2mrpT5TsffnAwhxBwvwQ-46">
          <mxGeometry width="50" height="50" relative="1" as="geometry">
            <mxPoint x="-3.125" y="-4.848484848484849" as="sourcePoint" />
            <mxPoint x="25" y="1.2121212121212122" as="targetPoint" />
          </mxGeometry>
        </mxCell>
        <mxCell id="2mrpT5TsffnAwhxBwvwQ-50" value="" style="endArrow=none;html=1;rounded=0;entryX=0.5;entryY=1;entryDx=0;entryDy=0;movable=1;resizable=1;rotatable=1;deletable=1;editable=1;locked=0;connectable=1;" edge="1" parent="2mrpT5TsffnAwhxBwvwQ-45" target="2mrpT5TsffnAwhxBwvwQ-46">
          <mxGeometry width="50" height="50" relative="1" as="geometry">
            <mxPoint x="25" y="85.60000000000001" as="sourcePoint" />
            <mxPoint x="31.25" y="7.2727272727272725" as="targetPoint" />
          </mxGeometry>
        </mxCell>
        <mxCell id="2mrpT5TsffnAwhxBwvwQ-52" value="" style="group;movable=1;resizable=1;rotatable=1;deletable=1;editable=1;locked=0;connectable=1;" vertex="1" connectable="0" parent="1">
          <mxGeometry x="1170" y="930" width="50" height="80" as="geometry" />
        </mxCell>
        <mxCell id="2mrpT5TsffnAwhxBwvwQ-53" value="And" style="rhombus;whiteSpace=wrap;html=1;movable=1;resizable=1;rotatable=1;deletable=1;editable=1;locked=0;connectable=1;" vertex="1" parent="2mrpT5TsffnAwhxBwvwQ-52">
          <mxGeometry y="18.181818181818183" width="50" height="48.48484848484849" as="geometry" />
        </mxCell>
        <mxCell id="2mrpT5TsffnAwhxBwvwQ-54" value="a" style="text;html=1;align=center;verticalAlign=middle;resizable=1;points=[];autosize=1;strokeColor=none;fillColor=none;movable=1;rotatable=1;deletable=1;editable=1;locked=0;connectable=1;" vertex="1" parent="2mrpT5TsffnAwhxBwvwQ-52">
          <mxGeometry x="21.875" y="61.81818181818181" width="25" height="24" as="geometry" />
        </mxCell>
        <mxCell id="2mrpT5TsffnAwhxBwvwQ-55" value="b" style="text;html=1;align=center;verticalAlign=middle;resizable=1;points=[];autosize=1;strokeColor=none;fillColor=none;movable=1;rotatable=1;deletable=1;editable=1;locked=0;connectable=1;" vertex="1" parent="2mrpT5TsffnAwhxBwvwQ-52">
          <mxGeometry x="21.875" width="25" height="24" as="geometry" />
        </mxCell>
        <mxCell id="2mrpT5TsffnAwhxBwvwQ-56" value="" style="endArrow=none;html=1;rounded=0;exitX=0.5;exitY=0;exitDx=0;exitDy=0;movable=1;resizable=1;rotatable=1;deletable=1;editable=1;locked=0;connectable=1;" edge="1" parent="2mrpT5TsffnAwhxBwvwQ-52" source="2mrpT5TsffnAwhxBwvwQ-53">
          <mxGeometry width="50" height="50" relative="1" as="geometry">
            <mxPoint x="-3.125" y="-4.848484848484849" as="sourcePoint" />
            <mxPoint x="25" y="1.2121212121212122" as="targetPoint" />
          </mxGeometry>
        </mxCell>
        <mxCell id="2mrpT5TsffnAwhxBwvwQ-57" value="" style="endArrow=none;html=1;rounded=0;entryX=0.5;entryY=1;entryDx=0;entryDy=0;movable=1;resizable=1;rotatable=1;deletable=1;editable=1;locked=0;connectable=1;" edge="1" parent="2mrpT5TsffnAwhxBwvwQ-52" target="2mrpT5TsffnAwhxBwvwQ-53">
          <mxGeometry width="50" height="50" relative="1" as="geometry">
            <mxPoint x="25" y="85.60000000000001" as="sourcePoint" />
            <mxPoint x="31.25" y="7.2727272727272725" as="targetPoint" />
          </mxGeometry>
        </mxCell>
        <mxCell id="2mrpT5TsffnAwhxBwvwQ-59" value="" style="group;movable=1;resizable=1;rotatable=1;deletable=1;editable=1;locked=0;connectable=1;" vertex="1" connectable="0" parent="1">
          <mxGeometry x="1070" y="1110" width="50" height="80" as="geometry" />
        </mxCell>
        <mxCell id="2mrpT5TsffnAwhxBwvwQ-60" value="And" style="rhombus;whiteSpace=wrap;html=1;movable=1;resizable=1;rotatable=1;deletable=1;editable=1;locked=0;connectable=1;" vertex="1" parent="2mrpT5TsffnAwhxBwvwQ-59">
          <mxGeometry y="18.181818181818183" width="50" height="48.48484848484849" as="geometry" />
        </mxCell>
        <mxCell id="2mrpT5TsffnAwhxBwvwQ-61" value="a" style="text;html=1;align=center;verticalAlign=middle;resizable=1;points=[];autosize=1;strokeColor=none;fillColor=none;movable=1;rotatable=1;deletable=1;editable=1;locked=0;connectable=1;" vertex="1" parent="2mrpT5TsffnAwhxBwvwQ-59">
          <mxGeometry x="21.875" y="61.81818181818181" width="25" height="24" as="geometry" />
        </mxCell>
        <mxCell id="2mrpT5TsffnAwhxBwvwQ-62" value="b" style="text;html=1;align=center;verticalAlign=middle;resizable=1;points=[];autosize=1;strokeColor=none;fillColor=none;movable=1;rotatable=1;deletable=1;editable=1;locked=0;connectable=1;" vertex="1" parent="2mrpT5TsffnAwhxBwvwQ-59">
          <mxGeometry x="21.875" width="25" height="24" as="geometry" />
        </mxCell>
        <mxCell id="2mrpT5TsffnAwhxBwvwQ-63" value="" style="endArrow=none;html=1;rounded=0;exitX=0.5;exitY=0;exitDx=0;exitDy=0;movable=1;resizable=1;rotatable=1;deletable=1;editable=1;locked=0;connectable=1;" edge="1" parent="2mrpT5TsffnAwhxBwvwQ-59" source="2mrpT5TsffnAwhxBwvwQ-60">
          <mxGeometry width="50" height="50" relative="1" as="geometry">
            <mxPoint x="-3.125" y="-4.848484848484849" as="sourcePoint" />
            <mxPoint x="25" y="1.2121212121212122" as="targetPoint" />
          </mxGeometry>
        </mxCell>
        <mxCell id="2mrpT5TsffnAwhxBwvwQ-64" value="" style="endArrow=none;html=1;rounded=0;entryX=0.5;entryY=1;entryDx=0;entryDy=0;movable=1;resizable=1;rotatable=1;deletable=1;editable=1;locked=0;connectable=1;" edge="1" parent="2mrpT5TsffnAwhxBwvwQ-59" target="2mrpT5TsffnAwhxBwvwQ-60">
          <mxGeometry width="50" height="50" relative="1" as="geometry">
            <mxPoint x="25" y="85.60000000000001" as="sourcePoint" />
            <mxPoint x="31.25" y="7.2727272727272725" as="targetPoint" />
          </mxGeometry>
        </mxCell>
        <mxCell id="2mrpT5TsffnAwhxBwvwQ-65" value="" style="endArrow=none;html=1;rounded=0;" edge="1" parent="1">
          <mxGeometry width="50" height="50" relative="1" as="geometry">
            <mxPoint x="1190" y="1020" as="sourcePoint" />
            <mxPoint x="360" y="840" as="targetPoint" />
            <Array as="points">
              <mxPoint x="360" y="1020" />
            </Array>
          </mxGeometry>
        </mxCell>
        <mxCell id="2mrpT5TsffnAwhxBwvwQ-66" value="instruction[1]" style="text;html=1;align=center;verticalAlign=middle;whiteSpace=wrap;rounded=0;" vertex="1" parent="1">
          <mxGeometry x="810" y="1020" width="60" height="30" as="geometry" />
        </mxCell>
        <mxCell id="2mrpT5TsffnAwhxBwvwQ-67" value="" style="endArrow=none;html=1;rounded=0;entryX=1;entryY=0.5;entryDx=0;entryDy=0;exitX=0.076;exitY=0.99;exitDx=0;exitDy=0;exitPerimeter=0;" edge="1" parent="1" source="2mrpT5TsffnAwhxBwvwQ-47" target="2mrpT5TsffnAwhxBwvwQ-52">
          <mxGeometry width="50" height="50" relative="1" as="geometry">
            <mxPoint x="1130" y="960" as="sourcePoint" />
            <mxPoint x="1180" y="910" as="targetPoint" />
            <Array as="points">
              <mxPoint x="1314" y="970" />
            </Array>
          </mxGeometry>
        </mxCell>
        <mxCell id="2mrpT5TsffnAwhxBwvwQ-68" value="" style="group;movable=1;resizable=1;rotatable=1;deletable=1;editable=1;locked=0;connectable=1;" vertex="1" connectable="0" parent="1">
          <mxGeometry x="1340" y="1060" width="50" height="80" as="geometry" />
        </mxCell>
        <mxCell id="2mrpT5TsffnAwhxBwvwQ-69" value="or" style="rhombus;whiteSpace=wrap;html=1;movable=1;resizable=1;rotatable=1;deletable=1;editable=1;locked=0;connectable=1;" vertex="1" parent="2mrpT5TsffnAwhxBwvwQ-68">
          <mxGeometry y="18.181818181818183" width="50" height="48.48484848484849" as="geometry" />
        </mxCell>
        <mxCell id="2mrpT5TsffnAwhxBwvwQ-70" value="a" style="text;html=1;align=center;verticalAlign=middle;resizable=1;points=[];autosize=1;strokeColor=none;fillColor=none;movable=1;rotatable=1;deletable=1;editable=1;locked=0;connectable=1;" vertex="1" parent="2mrpT5TsffnAwhxBwvwQ-68">
          <mxGeometry x="21.875" y="61.81818181818181" width="25" height="24" as="geometry" />
        </mxCell>
        <mxCell id="2mrpT5TsffnAwhxBwvwQ-71" value="b" style="text;html=1;align=center;verticalAlign=middle;resizable=1;points=[];autosize=1;strokeColor=none;fillColor=none;movable=1;rotatable=1;deletable=1;editable=1;locked=0;connectable=1;" vertex="1" parent="2mrpT5TsffnAwhxBwvwQ-68">
          <mxGeometry x="21.875" width="25" height="24" as="geometry" />
        </mxCell>
        <mxCell id="2mrpT5TsffnAwhxBwvwQ-72" value="" style="endArrow=none;html=1;rounded=0;exitX=0.5;exitY=0;exitDx=0;exitDy=0;movable=1;resizable=1;rotatable=1;deletable=1;editable=1;locked=0;connectable=1;" edge="1" parent="2mrpT5TsffnAwhxBwvwQ-68" source="2mrpT5TsffnAwhxBwvwQ-69">
          <mxGeometry width="50" height="50" relative="1" as="geometry">
            <mxPoint x="-3.125" y="-4.848484848484849" as="sourcePoint" />
            <mxPoint x="25" y="1.2121212121212122" as="targetPoint" />
          </mxGeometry>
        </mxCell>
        <mxCell id="2mrpT5TsffnAwhxBwvwQ-73" value="" style="endArrow=none;html=1;rounded=0;entryX=0.5;entryY=1;entryDx=0;entryDy=0;movable=1;resizable=1;rotatable=1;deletable=1;editable=1;locked=0;connectable=1;" edge="1" parent="2mrpT5TsffnAwhxBwvwQ-68" target="2mrpT5TsffnAwhxBwvwQ-69">
          <mxGeometry width="50" height="50" relative="1" as="geometry">
            <mxPoint x="25" y="85.60000000000001" as="sourcePoint" />
            <mxPoint x="31.25" y="7.2727272727272725" as="targetPoint" />
          </mxGeometry>
        </mxCell>
        <mxCell id="2mrpT5TsffnAwhxBwvwQ-75" value="" style="endArrow=none;html=1;rounded=0;entryX=1;entryY=0.5;entryDx=0;entryDy=0;exitX=0.5;exitY=0;exitDx=0;exitDy=0;" edge="1" parent="1" source="2mrpT5TsffnAwhxBwvwQ-68" target="2mrpT5TsffnAwhxBwvwQ-46">
          <mxGeometry width="50" height="50" relative="1" as="geometry">
            <mxPoint x="1070" y="980" as="sourcePoint" />
            <mxPoint x="1120" y="930" as="targetPoint" />
            <Array as="points">
              <mxPoint x="1365" y="882" />
            </Array>
          </mxGeometry>
        </mxCell>
        <mxCell id="2mrpT5TsffnAwhxBwvwQ-76" value="" style="endArrow=none;html=1;rounded=0;" edge="1" parent="1">
          <mxGeometry width="50" height="50" relative="1" as="geometry">
            <mxPoint x="1090" y="1200" as="sourcePoint" />
            <mxPoint x="360" y="1020" as="targetPoint" />
            <Array as="points">
              <mxPoint x="360" y="1200" />
            </Array>
          </mxGeometry>
        </mxCell>
        <mxCell id="2mrpT5TsffnAwhxBwvwQ-77" value="" style="endArrow=none;html=1;rounded=0;entryX=1;entryY=0.5;entryDx=0;entryDy=0;" edge="1" parent="1" target="2mrpT5TsffnAwhxBwvwQ-60">
          <mxGeometry width="50" height="50" relative="1" as="geometry">
            <mxPoint x="1360" y="1152" as="sourcePoint" />
            <mxPoint x="1140" y="950" as="targetPoint" />
          </mxGeometry>
        </mxCell>
        <mxCell id="2mrpT5TsffnAwhxBwvwQ-78" value="instruction[2]" style="text;html=1;align=center;verticalAlign=middle;whiteSpace=wrap;rounded=0;" vertex="1" parent="1">
          <mxGeometry x="810" y="1200" width="60" height="30" as="geometry" />
        </mxCell>
        <mxCell id="2mrpT5TsffnAwhxBwvwQ-80" value="" style="endArrow=none;html=1;rounded=0;entryX=0;entryY=1;entryDx=0;entryDy=0;strokeColor=#FF6666;" edge="1" parent="1" target="Y7hhoJTVe6BPz_TUXUCj-66">
          <mxGeometry width="50" height="50" relative="1" as="geometry">
            <mxPoint x="310" y="560" as="sourcePoint" />
            <mxPoint x="1170" y="730" as="targetPoint" />
            <Array as="points">
              <mxPoint x="310" y="1320" />
              <mxPoint x="1500" y="1320" />
              <mxPoint x="1500" y="750" />
            </Array>
          </mxGeometry>
        </mxCell>
        <mxCell id="2mrpT5TsffnAwhxBwvwQ-81" value="" style="group;movable=1;resizable=1;rotatable=1;deletable=1;editable=1;locked=0;connectable=1;" vertex="1" connectable="0" parent="1">
          <mxGeometry x="1400" y="1100" width="50" height="80" as="geometry" />
        </mxCell>
        <mxCell id="2mrpT5TsffnAwhxBwvwQ-82" value="or" style="rhombus;whiteSpace=wrap;html=1;movable=1;resizable=1;rotatable=1;deletable=1;editable=1;locked=0;connectable=1;" vertex="1" parent="2mrpT5TsffnAwhxBwvwQ-81">
          <mxGeometry y="18.181818181818183" width="50" height="48.48484848484849" as="geometry" />
        </mxCell>
        <mxCell id="2mrpT5TsffnAwhxBwvwQ-83" value="a" style="text;html=1;align=center;verticalAlign=middle;resizable=1;points=[];autosize=1;strokeColor=none;fillColor=none;movable=1;rotatable=1;deletable=1;editable=1;locked=0;connectable=1;" vertex="1" parent="2mrpT5TsffnAwhxBwvwQ-81">
          <mxGeometry x="21.875" y="61.81818181818181" width="25" height="24" as="geometry" />
        </mxCell>
        <mxCell id="2mrpT5TsffnAwhxBwvwQ-84" value="b" style="text;html=1;align=center;verticalAlign=middle;resizable=1;points=[];autosize=1;strokeColor=none;fillColor=none;movable=1;rotatable=1;deletable=1;editable=1;locked=0;connectable=1;" vertex="1" parent="2mrpT5TsffnAwhxBwvwQ-81">
          <mxGeometry x="21.875" width="25" height="24" as="geometry" />
        </mxCell>
        <mxCell id="2mrpT5TsffnAwhxBwvwQ-85" value="" style="endArrow=none;html=1;rounded=0;exitX=0.5;exitY=0;exitDx=0;exitDy=0;movable=1;resizable=1;rotatable=1;deletable=1;editable=1;locked=0;connectable=1;" edge="1" parent="2mrpT5TsffnAwhxBwvwQ-81" source="2mrpT5TsffnAwhxBwvwQ-82">
          <mxGeometry width="50" height="50" relative="1" as="geometry">
            <mxPoint x="-3.125" y="-4.848484848484849" as="sourcePoint" />
            <mxPoint x="25" y="1.2121212121212122" as="targetPoint" />
          </mxGeometry>
        </mxCell>
        <mxCell id="2mrpT5TsffnAwhxBwvwQ-86" value="" style="endArrow=none;html=1;rounded=0;entryX=0.5;entryY=1;entryDx=0;entryDy=0;movable=1;resizable=1;rotatable=1;deletable=1;editable=1;locked=0;connectable=1;" edge="1" parent="2mrpT5TsffnAwhxBwvwQ-81" target="2mrpT5TsffnAwhxBwvwQ-82">
          <mxGeometry width="50" height="50" relative="1" as="geometry">
            <mxPoint x="25" y="85.60000000000001" as="sourcePoint" />
            <mxPoint x="31.25" y="7.2727272727272725" as="targetPoint" />
          </mxGeometry>
        </mxCell>
        <mxCell id="2mrpT5TsffnAwhxBwvwQ-88" value="" style="endArrow=none;html=1;rounded=0;entryX=0.5;entryY=0;entryDx=0;entryDy=0;exitX=1;exitY=0.5;exitDx=0;exitDy=0;" edge="1" parent="1" source="2mrpT5TsffnAwhxBwvwQ-68" target="2mrpT5TsffnAwhxBwvwQ-81">
          <mxGeometry width="50" height="50" relative="1" as="geometry">
            <mxPoint x="1310" y="1010" as="sourcePoint" />
            <mxPoint x="1360" y="960" as="targetPoint" />
          </mxGeometry>
        </mxCell>
        <mxCell id="2mrpT5TsffnAwhxBwvwQ-89" value="" style="endArrow=none;html=1;rounded=0;entryX=1;entryY=0.5;entryDx=0;entryDy=0;exitX=0;exitY=0;exitDx=0;exitDy=0;" edge="1" parent="1" source="Y7hhoJTVe6BPz_TUXUCj-67" target="2mrpT5TsffnAwhxBwvwQ-82">
          <mxGeometry width="50" height="50" relative="1" as="geometry">
            <mxPoint x="1480" y="840" as="sourcePoint" />
            <mxPoint x="1360" y="1050" as="targetPoint" />
            <Array as="points">
              <mxPoint x="1470" y="780" />
              <mxPoint x="1470" y="1142" />
            </Array>
          </mxGeometry>
        </mxCell>
        <mxCell id="2mrpT5TsffnAwhxBwvwQ-90" value="" style="group;movable=1;resizable=1;rotatable=1;deletable=1;editable=1;locked=0;connectable=1;" vertex="1" connectable="0" parent="1">
          <mxGeometry x="1510" y="850" width="50" height="80" as="geometry" />
        </mxCell>
        <mxCell id="2mrpT5TsffnAwhxBwvwQ-91" value="And" style="rhombus;whiteSpace=wrap;html=1;movable=1;resizable=1;rotatable=1;deletable=1;editable=1;locked=0;connectable=1;" vertex="1" parent="2mrpT5TsffnAwhxBwvwQ-90">
          <mxGeometry y="18.181818181818183" width="50" height="48.48484848484849" as="geometry" />
        </mxCell>
        <mxCell id="2mrpT5TsffnAwhxBwvwQ-92" value="a" style="text;html=1;align=center;verticalAlign=middle;resizable=1;points=[];autosize=1;strokeColor=none;fillColor=none;movable=1;rotatable=1;deletable=1;editable=1;locked=0;connectable=1;" vertex="1" parent="2mrpT5TsffnAwhxBwvwQ-90">
          <mxGeometry x="21.875" y="61.81818181818181" width="25" height="24" as="geometry" />
        </mxCell>
        <mxCell id="2mrpT5TsffnAwhxBwvwQ-93" value="b" style="text;html=1;align=center;verticalAlign=middle;resizable=1;points=[];autosize=1;strokeColor=none;fillColor=none;movable=1;rotatable=1;deletable=1;editable=1;locked=0;connectable=1;" vertex="1" parent="2mrpT5TsffnAwhxBwvwQ-90">
          <mxGeometry x="21.875" width="25" height="24" as="geometry" />
        </mxCell>
        <mxCell id="2mrpT5TsffnAwhxBwvwQ-94" value="" style="endArrow=none;html=1;rounded=0;exitX=0.5;exitY=0;exitDx=0;exitDy=0;movable=1;resizable=1;rotatable=1;deletable=1;editable=1;locked=0;connectable=1;" edge="1" parent="2mrpT5TsffnAwhxBwvwQ-90" source="2mrpT5TsffnAwhxBwvwQ-91">
          <mxGeometry width="50" height="50" relative="1" as="geometry">
            <mxPoint x="-3.125" y="-4.848484848484849" as="sourcePoint" />
            <mxPoint x="25" y="1.2121212121212122" as="targetPoint" />
          </mxGeometry>
        </mxCell>
        <mxCell id="2mrpT5TsffnAwhxBwvwQ-95" value="" style="endArrow=none;html=1;rounded=0;entryX=0.5;entryY=1;entryDx=0;entryDy=0;movable=1;resizable=1;rotatable=1;deletable=1;editable=1;locked=0;connectable=1;" edge="1" parent="2mrpT5TsffnAwhxBwvwQ-90" target="2mrpT5TsffnAwhxBwvwQ-91">
          <mxGeometry width="50" height="50" relative="1" as="geometry">
            <mxPoint x="25" y="85.60000000000001" as="sourcePoint" />
            <mxPoint x="31.25" y="7.2727272727272725" as="targetPoint" />
          </mxGeometry>
        </mxCell>
        <mxCell id="2mrpT5TsffnAwhxBwvwQ-96" value="" style="endArrow=none;html=1;rounded=0;entryX=1;entryY=0.5;entryDx=0;entryDy=0;exitX=0;exitY=1;exitDx=0;exitDy=0;" edge="1" parent="1" source="Y7hhoJTVe6BPz_TUXUCj-67" target="2mrpT5TsffnAwhxBwvwQ-90">
          <mxGeometry width="50" height="50" relative="1" as="geometry">
            <mxPoint x="1390" y="870" as="sourcePoint" />
            <mxPoint x="1340" y="830" as="targetPoint" />
            <Array as="points">
              <mxPoint x="1570" y="810" />
              <mxPoint x="1570" y="890" />
            </Array>
          </mxGeometry>
        </mxCell>
        <mxCell id="2mrpT5TsffnAwhxBwvwQ-98" value="&lt;font style=&quot;font-size: 9px;&quot;&gt;Not&lt;/font&gt;" style="rounded=0;whiteSpace=wrap;html=1;" vertex="1" parent="1">
          <mxGeometry x="1522.5" y="830" width="25" height="20" as="geometry" />
        </mxCell>
        <mxCell id="2mrpT5TsffnAwhxBwvwQ-99" value="&lt;font style=&quot;font-size: 9px;&quot;&gt;Not&lt;/font&gt;" style="rounded=0;whiteSpace=wrap;html=1;" vertex="1" parent="1">
          <mxGeometry x="1522.5" y="930" width="25" height="20" as="geometry" />
        </mxCell>
        <mxCell id="2mrpT5TsffnAwhxBwvwQ-100" value="" style="endArrow=none;html=1;rounded=0;exitX=0.5;exitY=1;exitDx=0;exitDy=0;" edge="1" parent="1" source="2mrpT5TsffnAwhxBwvwQ-99">
          <mxGeometry width="50" height="50" relative="1" as="geometry">
            <mxPoint x="1290" y="880" as="sourcePoint" />
            <mxPoint x="1470" y="970" as="targetPoint" />
            <Array as="points">
              <mxPoint x="1535" y="970" />
            </Array>
          </mxGeometry>
        </mxCell>
        <mxCell id="2mrpT5TsffnAwhxBwvwQ-101" value="" style="endArrow=none;html=1;rounded=0;exitX=0.5;exitY=0;exitDx=0;exitDy=0;strokeColor=#FF6666;" edge="1" parent="1" source="2mrpT5TsffnAwhxBwvwQ-98">
          <mxGeometry width="50" height="50" relative="1" as="geometry">
            <mxPoint x="1290" y="880" as="sourcePoint" />
            <mxPoint x="1500" y="820" as="targetPoint" />
            <Array as="points">
              <mxPoint x="1535" y="820" />
            </Array>
          </mxGeometry>
        </mxCell>
        <mxCell id="2mrpT5TsffnAwhxBwvwQ-103" value="`" style="endArrow=none;html=1;rounded=0;" edge="1" parent="1">
          <mxGeometry width="50" height="50" relative="1" as="geometry">
            <mxPoint x="360" y="720" as="sourcePoint" />
            <mxPoint x="740" y="720" as="targetPoint" />
          </mxGeometry>
        </mxCell>
        <mxCell id="2mrpT5TsffnAwhxBwvwQ-104" value="" style="group;movable=1;resizable=1;rotatable=1;deletable=1;editable=1;locked=0;connectable=1;" vertex="1" connectable="0" parent="1">
          <mxGeometry x="720" y="630" width="50" height="80" as="geometry" />
        </mxCell>
        <mxCell id="2mrpT5TsffnAwhxBwvwQ-105" value="And" style="rhombus;whiteSpace=wrap;html=1;movable=1;resizable=1;rotatable=1;deletable=1;editable=1;locked=0;connectable=1;" vertex="1" parent="2mrpT5TsffnAwhxBwvwQ-104">
          <mxGeometry y="18.181818181818183" width="50" height="48.48484848484849" as="geometry" />
        </mxCell>
        <mxCell id="2mrpT5TsffnAwhxBwvwQ-106" value="a" style="text;html=1;align=center;verticalAlign=middle;resizable=1;points=[];autosize=1;strokeColor=none;fillColor=none;movable=1;rotatable=1;deletable=1;editable=1;locked=0;connectable=1;" vertex="1" parent="2mrpT5TsffnAwhxBwvwQ-104">
          <mxGeometry x="21.875" y="61.81818181818181" width="25" height="24" as="geometry" />
        </mxCell>
        <mxCell id="2mrpT5TsffnAwhxBwvwQ-107" value="b" style="text;html=1;align=center;verticalAlign=middle;resizable=1;points=[];autosize=1;strokeColor=none;fillColor=none;movable=1;rotatable=1;deletable=1;editable=1;locked=0;connectable=1;" vertex="1" parent="2mrpT5TsffnAwhxBwvwQ-104">
          <mxGeometry x="21.875" width="25" height="24" as="geometry" />
        </mxCell>
        <mxCell id="2mrpT5TsffnAwhxBwvwQ-108" value="" style="endArrow=none;html=1;rounded=0;exitX=0.5;exitY=0;exitDx=0;exitDy=0;movable=1;resizable=1;rotatable=1;deletable=1;editable=1;locked=0;connectable=1;" edge="1" parent="2mrpT5TsffnAwhxBwvwQ-104" source="2mrpT5TsffnAwhxBwvwQ-105">
          <mxGeometry width="50" height="50" relative="1" as="geometry">
            <mxPoint x="-3.125" y="-4.848484848484849" as="sourcePoint" />
            <mxPoint x="25" y="1.2121212121212122" as="targetPoint" />
          </mxGeometry>
        </mxCell>
        <mxCell id="2mrpT5TsffnAwhxBwvwQ-109" value="" style="endArrow=none;html=1;rounded=0;entryX=0.5;entryY=1;entryDx=0;entryDy=0;movable=1;resizable=1;rotatable=1;deletable=1;editable=1;locked=0;connectable=1;" edge="1" parent="2mrpT5TsffnAwhxBwvwQ-104" target="2mrpT5TsffnAwhxBwvwQ-105">
          <mxGeometry width="50" height="50" relative="1" as="geometry">
            <mxPoint x="25" y="85.60000000000001" as="sourcePoint" />
            <mxPoint x="31.25" y="7.2727272727272725" as="targetPoint" />
          </mxGeometry>
        </mxCell>
        <mxCell id="2mrpT5TsffnAwhxBwvwQ-110" value="" style="endArrow=none;html=1;rounded=0;entryX=-0.075;entryY=-0.102;entryDx=0;entryDy=0;entryPerimeter=0;" edge="1" parent="1" target="2mrpT5TsffnAwhxBwvwQ-107">
          <mxGeometry width="50" height="50" relative="1" as="geometry">
            <mxPoint x="360" y="590" as="sourcePoint" />
            <mxPoint x="860" y="530" as="targetPoint" />
            <Array as="points">
              <mxPoint x="360" y="630" />
            </Array>
          </mxGeometry>
        </mxCell>
        <mxCell id="2mrpT5TsffnAwhxBwvwQ-111" value="" style="endArrow=none;html=1;rounded=0;exitX=1;exitY=0.5;exitDx=0;exitDy=0;entryX=0.25;entryY=1;entryDx=0;entryDy=0;" edge="1" parent="1" source="2mrpT5TsffnAwhxBwvwQ-105" target="Y7hhoJTVe6BPz_TUXUCj-27">
          <mxGeometry width="50" height="50" relative="1" as="geometry">
            <mxPoint x="740" y="580" as="sourcePoint" />
            <mxPoint x="790" y="530" as="targetPoint" />
            <Array as="points">
              <mxPoint x="1140" y="670" />
              <mxPoint x="1140" y="460" />
            </Array>
          </mxGeometry>
        </mxCell>
        <mxCell id="2mrpT5TsffnAwhxBwvwQ-112" value="instruction[15]" style="text;html=1;align=center;verticalAlign=middle;whiteSpace=wrap;rounded=0;" vertex="1" parent="1">
          <mxGeometry x="580" y="715" width="60" height="30" as="geometry" />
        </mxCell>
        <mxCell id="2mrpT5TsffnAwhxBwvwQ-113" value="" style="group;movable=1;resizable=1;rotatable=1;deletable=1;editable=1;locked=0;connectable=1;" vertex="1" connectable="0" parent="1">
          <mxGeometry x="720" y="720" width="50" height="80" as="geometry" />
        </mxCell>
        <mxCell id="2mrpT5TsffnAwhxBwvwQ-114" value="And" style="rhombus;whiteSpace=wrap;html=1;movable=1;resizable=1;rotatable=1;deletable=1;editable=1;locked=0;connectable=1;" vertex="1" parent="2mrpT5TsffnAwhxBwvwQ-113">
          <mxGeometry y="18.181818181818183" width="50" height="48.48484848484849" as="geometry" />
        </mxCell>
        <mxCell id="2mrpT5TsffnAwhxBwvwQ-115" value="a" style="text;html=1;align=center;verticalAlign=middle;resizable=1;points=[];autosize=1;strokeColor=none;fillColor=none;movable=1;rotatable=1;deletable=1;editable=1;locked=0;connectable=1;" vertex="1" parent="2mrpT5TsffnAwhxBwvwQ-113">
          <mxGeometry x="21.875" y="61.81818181818181" width="25" height="24" as="geometry" />
        </mxCell>
        <mxCell id="2mrpT5TsffnAwhxBwvwQ-116" value="b" style="text;html=1;align=center;verticalAlign=middle;resizable=1;points=[];autosize=1;strokeColor=none;fillColor=none;movable=1;rotatable=1;deletable=1;editable=1;locked=0;connectable=1;" vertex="1" parent="2mrpT5TsffnAwhxBwvwQ-113">
          <mxGeometry x="21.875" width="25" height="24" as="geometry" />
        </mxCell>
        <mxCell id="2mrpT5TsffnAwhxBwvwQ-117" value="" style="endArrow=none;html=1;rounded=0;exitX=0.5;exitY=0;exitDx=0;exitDy=0;movable=1;resizable=1;rotatable=1;deletable=1;editable=1;locked=0;connectable=1;" edge="1" parent="2mrpT5TsffnAwhxBwvwQ-113" source="2mrpT5TsffnAwhxBwvwQ-114">
          <mxGeometry width="50" height="50" relative="1" as="geometry">
            <mxPoint x="-3.125" y="-4.848484848484849" as="sourcePoint" />
            <mxPoint x="25" y="1.2121212121212122" as="targetPoint" />
          </mxGeometry>
        </mxCell>
        <mxCell id="2mrpT5TsffnAwhxBwvwQ-118" value="" style="endArrow=none;html=1;rounded=0;entryX=0.5;entryY=1;entryDx=0;entryDy=0;movable=1;resizable=1;rotatable=1;deletable=1;editable=1;locked=0;connectable=1;" edge="1" parent="2mrpT5TsffnAwhxBwvwQ-113" target="2mrpT5TsffnAwhxBwvwQ-114">
          <mxGeometry width="50" height="50" relative="1" as="geometry">
            <mxPoint x="25" y="85.60000000000001" as="sourcePoint" />
            <mxPoint x="31.25" y="7.2727272727272725" as="targetPoint" />
          </mxGeometry>
        </mxCell>
        <mxCell id="2mrpT5TsffnAwhxBwvwQ-119" value="`" style="endArrow=none;html=1;rounded=0;" edge="1" parent="1">
          <mxGeometry width="50" height="50" relative="1" as="geometry">
            <mxPoint x="360" y="805" as="sourcePoint" />
            <mxPoint x="740" y="805" as="targetPoint" />
          </mxGeometry>
        </mxCell>
        <mxCell id="2mrpT5TsffnAwhxBwvwQ-120" value="instruction[3]" style="text;html=1;align=center;verticalAlign=middle;whiteSpace=wrap;rounded=0;" vertex="1" parent="1">
          <mxGeometry x="580" y="800" width="60" height="30" as="geometry" />
        </mxCell>
        <mxCell id="2mrpT5TsffnAwhxBwvwQ-121" value="" style="endArrow=none;html=1;rounded=0;exitX=1;exitY=0.5;exitDx=0;exitDy=0;strokeColor=#FF6666;" edge="1" parent="1" source="2mrpT5TsffnAwhxBwvwQ-113">
          <mxGeometry width="50" height="50" relative="1" as="geometry">
            <mxPoint x="850" y="660" as="sourcePoint" />
            <mxPoint x="1750" y="530" as="targetPoint" />
            <Array as="points">
              <mxPoint x="1060" y="760" />
              <mxPoint x="1060" y="530" />
            </Array>
          </mxGeometry>
        </mxCell>
        <mxCell id="2mrpT5TsffnAwhxBwvwQ-122" value="" style="endArrow=none;html=1;rounded=0;exitX=0.103;exitY=1.049;exitDx=0;exitDy=0;exitPerimeter=0;" edge="1" parent="1" source="2mrpT5TsffnAwhxBwvwQ-83">
          <mxGeometry width="50" height="50" relative="1" as="geometry">
            <mxPoint x="1090" y="1380" as="sourcePoint" />
            <mxPoint x="360" y="1200" as="targetPoint" />
            <Array as="points">
              <mxPoint x="1424" y="1250" />
              <mxPoint x="360" y="1250" />
            </Array>
          </mxGeometry>
        </mxCell>
        <mxCell id="2mrpT5TsffnAwhxBwvwQ-123" value="instruction[15&lt;span style=&quot;background-color: initial;&quot;&gt;]&lt;/span&gt;" style="text;html=1;align=center;verticalAlign=middle;whiteSpace=wrap;rounded=0;" vertex="1" parent="1">
          <mxGeometry x="810" y="1250" width="60" height="30" as="geometry" />
        </mxCell>
        <mxCell id="2mrpT5TsffnAwhxBwvwQ-124" value="" style="group" vertex="1" connectable="0" parent="1">
          <mxGeometry x="500" y="60" width="170" height="130" as="geometry" />
        </mxCell>
        <mxCell id="2mrpT5TsffnAwhxBwvwQ-125" value="Mux16" style="shape=or;whiteSpace=wrap;html=1;direction=east;" vertex="1" parent="2mrpT5TsffnAwhxBwvwQ-124">
          <mxGeometry x="50" y="10" width="60" height="80" as="geometry" />
        </mxCell>
        <mxCell id="2mrpT5TsffnAwhxBwvwQ-126" value="" style="endArrow=none;html=1;rounded=0;entryX=0;entryY=0.25;entryDx=0;entryDy=0;entryPerimeter=0;" edge="1" parent="2mrpT5TsffnAwhxBwvwQ-124" target="2mrpT5TsffnAwhxBwvwQ-125">
          <mxGeometry width="50" height="50" relative="1" as="geometry">
            <mxPoint x="10" y="30" as="sourcePoint" />
            <mxPoint x="110" y="150" as="targetPoint" />
          </mxGeometry>
        </mxCell>
        <mxCell id="2mrpT5TsffnAwhxBwvwQ-127" value="" style="endArrow=none;html=1;rounded=0;entryX=0;entryY=0.75;entryDx=0;entryDy=0;entryPerimeter=0;" edge="1" parent="2mrpT5TsffnAwhxBwvwQ-124" target="2mrpT5TsffnAwhxBwvwQ-125">
          <mxGeometry width="50" height="50" relative="1" as="geometry">
            <mxPoint x="10" y="70" as="sourcePoint" />
            <mxPoint x="110" y="150" as="targetPoint" />
          </mxGeometry>
        </mxCell>
        <mxCell id="2mrpT5TsffnAwhxBwvwQ-128" value="" style="endArrow=none;html=1;rounded=0;entryX=0.158;entryY=0.993;entryDx=0;entryDy=0;entryPerimeter=0;" edge="1" parent="2mrpT5TsffnAwhxBwvwQ-124" target="2mrpT5TsffnAwhxBwvwQ-125">
          <mxGeometry width="50" height="50" relative="1" as="geometry">
            <mxPoint x="59" y="130" as="sourcePoint" />
            <mxPoint x="110" y="150" as="targetPoint" />
          </mxGeometry>
        </mxCell>
        <mxCell id="2mrpT5TsffnAwhxBwvwQ-129" value="" style="endArrow=none;html=1;rounded=0;entryX=1;entryY=0.5;entryDx=0;entryDy=0;entryPerimeter=0;" edge="1" parent="2mrpT5TsffnAwhxBwvwQ-124" target="2mrpT5TsffnAwhxBwvwQ-125">
          <mxGeometry width="50" height="50" relative="1" as="geometry">
            <mxPoint x="150" y="50" as="sourcePoint" />
            <mxPoint x="110" y="150" as="targetPoint" />
          </mxGeometry>
        </mxCell>
        <mxCell id="2mrpT5TsffnAwhxBwvwQ-130" value="a[16]" style="text;html=1;align=center;verticalAlign=middle;whiteSpace=wrap;rounded=0;" vertex="1" parent="2mrpT5TsffnAwhxBwvwQ-124">
          <mxGeometry width="60" height="30" as="geometry" />
        </mxCell>
        <mxCell id="2mrpT5TsffnAwhxBwvwQ-131" value="b[16]" style="text;html=1;align=center;verticalAlign=middle;whiteSpace=wrap;rounded=0;" vertex="1" parent="2mrpT5TsffnAwhxBwvwQ-124">
          <mxGeometry y="40" width="60" height="30" as="geometry" />
        </mxCell>
        <mxCell id="2mrpT5TsffnAwhxBwvwQ-132" value="sel" style="text;html=1;align=center;verticalAlign=middle;whiteSpace=wrap;rounded=0;" vertex="1" parent="2mrpT5TsffnAwhxBwvwQ-124">
          <mxGeometry x="50" y="90" width="60" height="30" as="geometry" />
        </mxCell>
        <mxCell id="2mrpT5TsffnAwhxBwvwQ-133" value="out[16]" style="text;html=1;align=center;verticalAlign=middle;whiteSpace=wrap;rounded=0;" vertex="1" parent="2mrpT5TsffnAwhxBwvwQ-124">
          <mxGeometry x="110" y="20" width="60" height="30" as="geometry" />
        </mxCell>
        <mxCell id="2mrpT5TsffnAwhxBwvwQ-135" value="" style="endArrow=none;html=1;rounded=0;exitX=0.25;exitY=1;exitDx=0;exitDy=0;strokeColor=#6666FF;" edge="1" parent="1" source="2mrpT5TsffnAwhxBwvwQ-131">
          <mxGeometry width="50" height="50" relative="1" as="geometry">
            <mxPoint x="930" y="260" as="sourcePoint" />
            <mxPoint x="1140" y="260" as="targetPoint" />
            <Array as="points">
              <mxPoint x="515" y="260" />
            </Array>
          </mxGeometry>
        </mxCell>
        <mxCell id="2mrpT5TsffnAwhxBwvwQ-136" value="&lt;font style=&quot;font-size: 9px;&quot;&gt;Not&lt;/font&gt;" style="rounded=0;whiteSpace=wrap;html=1;" vertex="1" parent="1">
          <mxGeometry x="522.5" y="420" width="25" height="20" as="geometry" />
        </mxCell>
        <mxCell id="2mrpT5TsffnAwhxBwvwQ-137" value="" style="endArrow=none;html=1;rounded=0;entryX=0.5;entryY=0;entryDx=0;entryDy=0;exitX=1;exitY=0.5;exitDx=0;exitDy=0;" edge="1" parent="1" source="2mrpT5TsffnAwhxBwvwQ-144" target="2mrpT5TsffnAwhxBwvwQ-138">
          <mxGeometry width="50" height="50" relative="1" as="geometry">
            <mxPoint x="479.42999999999995" y="315" as="sourcePoint" />
            <mxPoint x="479.42999999999995" y="295" as="targetPoint" />
            <Array as="points">
              <mxPoint x="490" y="390" />
              <mxPoint x="490" y="300" />
            </Array>
          </mxGeometry>
        </mxCell>
        <mxCell id="2mrpT5TsffnAwhxBwvwQ-138" value="" style="group;movable=1;resizable=1;rotatable=1;deletable=1;editable=1;locked=0;connectable=1;" vertex="1" connectable="0" parent="1">
          <mxGeometry x="510" y="300" width="50" height="80" as="geometry" />
        </mxCell>
        <mxCell id="2mrpT5TsffnAwhxBwvwQ-139" value="or" style="rhombus;whiteSpace=wrap;html=1;movable=1;resizable=1;rotatable=1;deletable=1;editable=1;locked=0;connectable=1;" vertex="1" parent="2mrpT5TsffnAwhxBwvwQ-138">
          <mxGeometry y="18.181818181818183" width="50" height="48.48484848484849" as="geometry" />
        </mxCell>
        <mxCell id="2mrpT5TsffnAwhxBwvwQ-140" value="a" style="text;html=1;align=center;verticalAlign=middle;resizable=1;points=[];autosize=1;strokeColor=none;fillColor=none;movable=1;rotatable=1;deletable=1;editable=1;locked=0;connectable=1;" vertex="1" parent="2mrpT5TsffnAwhxBwvwQ-138">
          <mxGeometry x="21.875" y="61.81818181818181" width="25" height="24" as="geometry" />
        </mxCell>
        <mxCell id="2mrpT5TsffnAwhxBwvwQ-141" value="b" style="text;html=1;align=center;verticalAlign=middle;resizable=1;points=[];autosize=1;strokeColor=none;fillColor=none;movable=1;rotatable=1;deletable=1;editable=1;locked=0;connectable=1;" vertex="1" parent="2mrpT5TsffnAwhxBwvwQ-138">
          <mxGeometry x="21.875" width="25" height="24" as="geometry" />
        </mxCell>
        <mxCell id="2mrpT5TsffnAwhxBwvwQ-142" value="" style="endArrow=none;html=1;rounded=0;exitX=0.5;exitY=0;exitDx=0;exitDy=0;movable=1;resizable=1;rotatable=1;deletable=1;editable=1;locked=0;connectable=1;" edge="1" parent="2mrpT5TsffnAwhxBwvwQ-138" source="2mrpT5TsffnAwhxBwvwQ-139">
          <mxGeometry width="50" height="50" relative="1" as="geometry">
            <mxPoint x="-3.125" y="-4.848484848484849" as="sourcePoint" />
            <mxPoint x="25" y="1.2121212121212122" as="targetPoint" />
          </mxGeometry>
        </mxCell>
        <mxCell id="2mrpT5TsffnAwhxBwvwQ-143" value="" style="endArrow=none;html=1;rounded=0;entryX=0.5;entryY=1;entryDx=0;entryDy=0;movable=1;resizable=1;rotatable=1;deletable=1;editable=1;locked=0;connectable=1;" edge="1" parent="2mrpT5TsffnAwhxBwvwQ-138" target="2mrpT5TsffnAwhxBwvwQ-139">
          <mxGeometry width="50" height="50" relative="1" as="geometry">
            <mxPoint x="25" y="85.60000000000001" as="sourcePoint" />
            <mxPoint x="31.25" y="7.2727272727272725" as="targetPoint" />
          </mxGeometry>
        </mxCell>
        <mxCell id="2mrpT5TsffnAwhxBwvwQ-144" value="" style="group;movable=1;resizable=1;rotatable=1;deletable=1;editable=1;locked=0;connectable=1;" vertex="1" connectable="0" parent="1">
          <mxGeometry x="430" y="350" width="50" height="80" as="geometry" />
        </mxCell>
        <mxCell id="2mrpT5TsffnAwhxBwvwQ-145" value="And" style="rhombus;whiteSpace=wrap;html=1;movable=1;resizable=1;rotatable=1;deletable=1;editable=1;locked=0;connectable=1;" vertex="1" parent="2mrpT5TsffnAwhxBwvwQ-144">
          <mxGeometry y="18.181818181818183" width="50" height="48.48484848484849" as="geometry" />
        </mxCell>
        <mxCell id="2mrpT5TsffnAwhxBwvwQ-146" value="a" style="text;html=1;align=center;verticalAlign=middle;resizable=1;points=[];autosize=1;strokeColor=none;fillColor=none;movable=1;rotatable=1;deletable=1;editable=1;locked=0;connectable=1;" vertex="1" parent="2mrpT5TsffnAwhxBwvwQ-144">
          <mxGeometry x="21.875" y="61.81818181818181" width="25" height="24" as="geometry" />
        </mxCell>
        <mxCell id="2mrpT5TsffnAwhxBwvwQ-147" value="b" style="text;html=1;align=center;verticalAlign=middle;resizable=1;points=[];autosize=1;strokeColor=none;fillColor=none;movable=1;rotatable=1;deletable=1;editable=1;locked=0;connectable=1;" vertex="1" parent="2mrpT5TsffnAwhxBwvwQ-144">
          <mxGeometry x="21.875" width="25" height="24" as="geometry" />
        </mxCell>
        <mxCell id="2mrpT5TsffnAwhxBwvwQ-148" value="" style="endArrow=none;html=1;rounded=0;exitX=0.5;exitY=0;exitDx=0;exitDy=0;movable=1;resizable=1;rotatable=1;deletable=1;editable=1;locked=0;connectable=1;" edge="1" parent="2mrpT5TsffnAwhxBwvwQ-144" source="2mrpT5TsffnAwhxBwvwQ-145">
          <mxGeometry width="50" height="50" relative="1" as="geometry">
            <mxPoint x="-3.125" y="-4.848484848484849" as="sourcePoint" />
            <mxPoint x="25" y="1.2121212121212122" as="targetPoint" />
          </mxGeometry>
        </mxCell>
        <mxCell id="2mrpT5TsffnAwhxBwvwQ-149" value="" style="endArrow=none;html=1;rounded=0;entryX=0.5;entryY=1;entryDx=0;entryDy=0;movable=1;resizable=1;rotatable=1;deletable=1;editable=1;locked=0;connectable=1;" edge="1" parent="2mrpT5TsffnAwhxBwvwQ-144" target="2mrpT5TsffnAwhxBwvwQ-145">
          <mxGeometry width="50" height="50" relative="1" as="geometry">
            <mxPoint x="25" y="85.60000000000001" as="sourcePoint" />
            <mxPoint x="31.25" y="7.2727272727272725" as="targetPoint" />
          </mxGeometry>
        </mxCell>
        <mxCell id="2mrpT5TsffnAwhxBwvwQ-150" value="" style="endArrow=none;html=1;rounded=0;exitX=0.5;exitY=0;exitDx=0;exitDy=0;" edge="1" parent="1" source="2mrpT5TsffnAwhxBwvwQ-144">
          <mxGeometry width="50" height="50" relative="1" as="geometry">
            <mxPoint x="410" y="330" as="sourcePoint" />
            <mxPoint x="360" y="350" as="targetPoint" />
          </mxGeometry>
        </mxCell>
        <mxCell id="2mrpT5TsffnAwhxBwvwQ-151" value="" style="endArrow=none;html=1;rounded=0;exitX=0;exitY=0.75;exitDx=0;exitDy=0;" edge="1" parent="1" source="2mrpT5TsffnAwhxBwvwQ-136">
          <mxGeometry width="50" height="50" relative="1" as="geometry">
            <mxPoint x="455" y="434.71" as="sourcePoint" />
            <mxPoint x="360" y="434.71" as="targetPoint" />
          </mxGeometry>
        </mxCell>
        <mxCell id="2mrpT5TsffnAwhxBwvwQ-152" value="instruction[5&lt;span style=&quot;background-color: initial;&quot;&gt;]&lt;/span&gt;" style="text;html=1;align=center;verticalAlign=middle;whiteSpace=wrap;rounded=0;" vertex="1" parent="1">
          <mxGeometry x="370" y="320" width="60" height="30" as="geometry" />
        </mxCell>
        <mxCell id="2mrpT5TsffnAwhxBwvwQ-153" value="instruction[15&lt;span style=&quot;background-color: initial;&quot;&gt;]&lt;/span&gt;" style="text;html=1;align=center;verticalAlign=middle;whiteSpace=wrap;rounded=0;" vertex="1" parent="1">
          <mxGeometry x="370" y="410" width="60" height="30" as="geometry" />
        </mxCell>
        <mxCell id="2mrpT5TsffnAwhxBwvwQ-154" value="" style="endArrow=none;html=1;rounded=0;entryX=0.108;entryY=0.924;entryDx=0;entryDy=0;entryPerimeter=0;exitX=0.5;exitY=0;exitDx=0;exitDy=0;" edge="1" parent="1" source="2mrpT5TsffnAwhxBwvwQ-136" target="2mrpT5TsffnAwhxBwvwQ-140">
          <mxGeometry width="50" height="50" relative="1" as="geometry">
            <mxPoint x="462.21" y="220" as="sourcePoint" />
            <mxPoint x="462.21" y="200" as="targetPoint" />
          </mxGeometry>
        </mxCell>
        <mxCell id="2mrpT5TsffnAwhxBwvwQ-155" value="" style="endArrow=none;html=1;rounded=0;entryX=1;entryY=0.5;entryDx=0;entryDy=0;exitX=0.25;exitY=1;exitDx=0;exitDy=0;" edge="1" parent="1" source="Y7hhoJTVe6BPz_TUXUCj-112" target="2mrpT5TsffnAwhxBwvwQ-138">
          <mxGeometry width="50" height="50" relative="1" as="geometry">
            <mxPoint x="500" y="310" as="sourcePoint" />
            <mxPoint x="550" y="260" as="targetPoint" />
            <Array as="points">
              <mxPoint x="630" y="150" />
              <mxPoint x="630" y="340" />
            </Array>
          </mxGeometry>
        </mxCell>
      </root>
    </mxGraphModel>
  </diagram>
</mxfile>
